<svg width="270" height="251" fill="none" xmlns="http://www.w3.org/2000/svg"><path d="M8.996 163H6.938v-8.292H2.953V163H.903v-9.953h8.093V163Zm10.318-9.953V163h-2.057v-8.292h-2.652l-.165 3.514c-.068 1.185-.218 2.119-.45 2.802-.233.679-.573 1.178-1.02 1.497-.446.315-1.056.474-1.831.479h-.534v-1.647l.342-.035c.515-.068.882-.364 1.1-.888.224-.529.365-1.468.425-2.817l.17-4.566h6.672Zm7.954 7.902h-3.596L22.988 163h-2.18l3.705-9.953h1.9L30.14 163h-2.18l-.691-2.051Zm-3.042-1.661h2.488l-1.251-3.726-1.237 3.726ZM39.589 163h-2.05v-4.266h-4V163h-2.05v-9.953h2.05v4.033h4v-4.033h2.05V163Zm8.186-9.953h2.057V163h-2.057v-6.61L43.789 163h-2.05v-9.953h2.05v6.624l3.986-6.624Zm6.306 6.446V163H52.03v-9.953h3.883c.747 0 1.403.137 1.968.41.57.273 1.007.663 1.313 1.169.305.501.458 1.073.458 1.716 0 .975-.335 1.745-1.005 2.31-.666.561-1.588.841-2.769.841h-1.797Zm0-1.661h1.831c.543 0 .955-.128 1.238-.383.287-.255.43-.62.43-1.094 0-.487-.143-.881-.43-1.182-.287-.301-.684-.456-1.19-.465h-1.88v3.124Zm15.582.417c0 .98-.174 1.839-.52 2.577-.346.738-.843 1.308-1.49 1.709-.643.401-1.381.602-2.215.602-.825 0-1.56-.199-2.208-.595-.647-.396-1.148-.962-1.504-1.695-.355-.739-.535-1.586-.54-2.543v-.492c0-.98.175-1.842.526-2.584.356-.748.855-1.32 1.497-1.716.648-.401 1.386-.602 2.215-.602.83 0 1.566.201 2.208.602.647.396 1.146.968 1.497 1.716.356.742.534 1.601.534 2.577v.444Zm-2.078-.451c0-1.044-.187-1.837-.561-2.379-.374-.542-.907-.814-1.6-.814-.688 0-1.219.269-1.593.807-.373.533-.562 1.317-.567 2.352v.485c0 1.016.187 1.805.56 2.365.374.561.912.841 1.614.841.688 0 1.217-.269 1.586-.807.369-.542.556-1.33.56-2.365v-.485ZM71.573 163v-9.953h3.486c1.208 0 2.124.232 2.748.697.624.46.937 1.137.937 2.03 0 .488-.126.919-.376 1.292-.25.37-.6.641-1.046.814.51.127.911.385 1.203.772.296.388.444.862.444 1.422 0 .957-.305 1.682-.916 2.174-.61.492-1.48.743-2.611.752h-3.87Zm2.05-4.334v2.687h1.757c.484 0 .86-.114 1.128-.342.274-.233.41-.552.41-.957 0-.912-.471-1.374-1.415-1.388h-1.88Zm0-1.449h1.518c1.035-.018 1.552-.431 1.552-1.238 0-.451-.132-.774-.397-.97-.26-.201-.672-.301-1.237-.301h-1.435v2.509Zm12.93 3.732h-3.595L82.274 163h-2.18l3.705-9.953h1.9L89.424 163h-2.18l-.69-2.051Zm-3.042-1.661H86l-1.251-3.726-1.238 3.726ZM98.875 163h-2.051v-4.266h-4V163h-2.05v-9.953h2.05v4.033h4v-4.033h2.05V163Zm8.185-9.953h2.058V163h-2.058v-6.61l-3.985 6.61h-2.051v-9.953h2.051v6.624l3.985-6.624Zm10.244 5.64h-3.938v2.666h4.621V163h-6.672v-9.953h6.659v1.661h-4.608v2.372h3.938v1.607Z" fill="#212121"/><path d="M2.468 189.104V193H1.155v-9.953h3.671c1.09 0 1.942.278 2.557.834.62.556.93 1.292.93 2.208 0 .966-.304 1.711-.91 2.235-.601.52-1.465.78-2.59.78H2.467Zm0-1.074h2.358c.702 0 1.24-.164 1.613-.492.374-.333.561-.811.561-1.435 0-.593-.187-1.067-.56-1.422-.374-.356-.887-.54-1.539-.554H2.468v3.903ZM14.693 193c-.072-.146-.132-.406-.177-.779-.588.61-1.29.916-2.106.916-.729 0-1.328-.205-1.798-.616a2.014 2.014 0 0 1-.697-1.572c0-.77.292-1.367.875-1.791.588-.428 1.413-.642 2.475-.642h1.23v-.581c0-.442-.132-.793-.396-1.053-.265-.264-.654-.397-1.17-.397-.45 0-.829.114-1.134.342-.305.228-.458.504-.458.827h-1.271c0-.369.13-.724.39-1.066.264-.346.619-.62 1.066-.82a3.603 3.603 0 0 1 1.483-.301c.852 0 1.52.214 2.003.642.483.424.734 1.01.752 1.757v3.405c0 .679.086 1.219.26 1.62V193h-1.327Zm-2.098-.964c.396 0 .772-.102 1.128-.307.355-.206.613-.472.772-.8v-1.518h-.991c-1.55 0-2.324.454-2.324 1.36 0 .397.132.707.396.93.265.223.604.335 1.019.335Zm5.684.964v-7.396h2.884c.985 0 1.739.173 2.263.519.529.342.793.845.793 1.511 0 .342-.103.651-.308.929-.205.274-.508.484-.909.629.447.105.805.31 1.073.616.274.305.41.67.41 1.093 0 .679-.25 1.199-.751 1.559-.497.36-1.201.54-2.113.54H18.28Zm1.264-3.247v2.228h2.092c.529 0 .923-.098 1.182-.293.265-.196.397-.472.397-.828 0-.738-.542-1.107-1.627-1.107h-2.044Zm0-1.012h1.634c1.185 0 1.777-.346 1.777-1.039s-.56-1.05-1.681-1.073h-1.73v2.112ZM32.623 193H31.36v-3.158H27.96V193H26.69v-7.396h1.271v3.206h3.398v-3.206h1.264V193Zm3.838-4.847h1.921c.839.009 1.502.228 1.99.657.487.428.73 1.009.73 1.743 0 .738-.25 1.33-.751 1.777-.501.447-1.176.67-2.023.67h-3.131v-7.396h1.264v2.549Zm7.28 4.847H42.47v-7.396h1.272V193Zm-7.28-3.814v2.782h1.88c.474 0 .841-.121 1.1-.363.26-.246.39-.581.39-1.004 0-.411-.127-.746-.382-1.005-.251-.265-.604-.401-1.06-.41h-1.928Zm14.167 2.139 2.516-5.721h1.579V193h-1.265v-5.38L51.066 193h-.875l-2.44-5.496V193h-1.265v-7.396h1.64l2.502 5.721Zm10.11-2.092c0-.724.141-1.376.424-1.955.287-.578.683-1.025 1.19-1.34.51-.314 1.09-.471 1.742-.471 1.008 0 1.82.348 2.44 1.046.625.697.937 1.624.937 2.782v.089c0 .72-.139 1.367-.417 1.941a3.113 3.113 0 0 1-1.182 1.333c-.51.319-1.099.479-1.764.479-1.003 0-1.816-.349-2.44-1.046-.62-.697-.93-1.62-.93-2.769v-.089Zm1.271.151c0 .82.19 1.479.568 1.975.383.497.893.745 1.531.745.642 0 1.153-.25 1.531-.751.379-.506.568-1.213.568-2.12 0-.811-.194-1.467-.581-1.968-.383-.506-.894-.759-1.532-.759-.624 0-1.128.248-1.51.745-.383.497-.575 1.208-.575 2.133Zm10.715-3.357c.93 0 1.673.313 2.229.937.56.62.84 1.438.84 2.454v.116c0 .697-.134 1.322-.403 1.873a3.013 3.013 0 0 1-1.162 1.279c-.501.3-1.08.451-1.736.451-.994 0-1.794-.331-2.4-.991-.606-.666-.909-1.557-.909-2.673v-.616c0-1.554.287-2.789.862-3.705.578-.916 1.43-1.474 2.556-1.674.638-.114 1.069-.253 1.292-.417a.796.796 0 0 0 .335-.677h1.04c0 .569-.13 1.014-.39 1.333-.256.319-.666.544-1.23.677l-.944.211c-.752.178-1.317.479-1.696.903-.373.419-.617.98-.731 1.681.67-.774 1.486-1.162 2.447-1.162Zm-.246 1.039c-.62 0-1.112.21-1.476.629-.365.415-.547.992-.547 1.73v.109c0 .793.182 1.422.547 1.887.369.46.866.69 1.49.69.629 0 1.126-.232 1.49-.697.365-.465.547-1.144.547-2.037 0-.697-.185-1.256-.554-1.675-.364-.424-.863-.636-1.497-.636Zm11.282 2.318c0 1.125-.257 2.032-.772 2.72-.515.689-1.212 1.033-2.092 1.033-.898 0-1.604-.285-2.119-.855v3.562h-1.265v-10.24h1.156l.061.82c.515-.638 1.23-.957 2.147-.957.888 0 1.59.335 2.105 1.005.52.67.78 1.602.78 2.796v.116Zm-1.264-.144c0-.834-.178-1.492-.533-1.975-.356-.483-.843-.725-1.463-.725-.766 0-1.34.34-1.723 1.019v3.534c.378.674.957 1.011 1.736 1.011.606 0 1.087-.239 1.443-.717.36-.483.54-1.199.54-2.147ZM90.36 193c-.073-.146-.132-.406-.178-.779-.588.61-1.29.916-2.105.916-.73 0-1.328-.205-1.798-.616a2.014 2.014 0 0 1-.697-1.572c0-.77.292-1.367.875-1.791.588-.428 1.413-.642 2.474-.642h1.23v-.581c0-.442-.131-.793-.396-1.053-.264-.264-.653-.397-1.168-.397-.452 0-.83.114-1.135.342-.306.228-.458.504-.458.827h-1.272c0-.369.13-.724.39-1.066.264-.346.62-.62 1.066-.82a3.604 3.604 0 0 1 1.484-.301c.852 0 1.52.214 2.003.642.483.424.733 1.01.752 1.757v3.405c0 .679.086 1.219.26 1.62V193H90.36Zm-2.099-.964c.397 0 .773-.102 1.129-.307.355-.206.612-.472.772-.8v-1.518h-.991c-1.55 0-2.325.454-2.325 1.36 0 .397.133.707.397.93.264.223.604.335 1.019.335Zm9.635-4.409a.974.974 0 0 0-.396-.82c-.264-.205-.627-.308-1.087-.308-.447 0-.82.116-1.121.349-.296.232-.445.506-.445.82H93.59c0-.643.269-1.169.806-1.579.538-.41 1.21-.615 2.017-.615.866 0 1.54.186 2.023.56.483.369.725.898.725 1.586 0 .333-.1.638-.3.916-.201.278-.486.499-.855.663.861.292 1.292.866 1.292 1.723 0 .679-.262 1.217-.786 1.613-.525.397-1.224.595-2.099.595-.852 0-1.556-.207-2.112-.622-.552-.419-.828-.985-.828-1.696h1.258c0 .361.16.67.479.93.323.255.725.383 1.203.383.483 0 .873-.112 1.169-.335a1.04 1.04 0 0 0 .444-.868c0-.415-.125-.711-.376-.889-.246-.182-.63-.273-1.155-.273H95.23v-1.067h1.374c.862-.022 1.292-.378 1.292-1.066Zm3.127 1.606c0-.724.142-1.376.424-1.955a3.226 3.226 0 0 1 1.19-1.34c.51-.314 1.091-.471 1.743-.471 1.007 0 1.82.348 2.44 1.046.625.697.937 1.624.937 2.782v.089c0 .72-.139 1.367-.417 1.941a3.117 3.117 0 0 1-1.183 1.333c-.51.319-1.098.479-1.763.479-1.003 0-1.817-.349-2.441-1.046-.62-.697-.93-1.62-.93-2.769v-.089Zm1.272.151c0 .82.189 1.479.567 1.975.383.497.893.745 1.532.745.642 0 1.153-.25 1.531-.751.378-.506.567-1.213.567-2.12 0-.811-.194-1.467-.581-1.968-.383-.506-.893-.759-1.531-.759-.625 0-1.128.248-1.511.745s-.574 1.208-.574 2.133Zm11.727 1.941 2.515-5.721h1.579V193h-1.264v-5.38l-2.393 5.38h-.875l-2.44-5.496V193h-1.265v-7.396h1.641l2.502 5.721Zm12.748-1.476h-.923V193h-1.272v-7.396h1.272v3.13h.827l2.488-3.13h1.532l-2.926 3.554L130.94 193h-1.607l-2.563-3.151Zm5.191-.616c0-.724.141-1.376.424-1.955a3.23 3.23 0 0 1 1.189-1.34c.511-.314 1.092-.471 1.744-.471 1.007 0 1.82.348 2.44 1.046.624.697.937 1.624.937 2.782v.089c0 .72-.139 1.367-.417 1.941a3.117 3.117 0 0 1-1.183 1.333c-.51.319-1.098.479-1.764.479-1.002 0-1.816-.349-2.44-1.046-.62-.697-.93-1.62-.93-2.769v-.089Zm1.272.151c0 .82.189 1.479.567 1.975.383.497.893.745 1.531.745.643 0 1.153-.25 1.532-.751.378-.506.567-1.213.567-2.12 0-.811-.194-1.467-.581-1.968-.383-.506-.893-.759-1.531-.759-.625 0-1.128.248-1.511.745s-.574 1.208-.574 2.133ZM146.744 193h-1.265v-3.158h-3.398V193h-1.271v-7.396h1.271v3.206h3.398v-3.206h1.265V193Zm5.423-.896c.452 0 .846-.136 1.183-.41.337-.273.524-.615.561-1.025h1.196a2.295 2.295 0 0 1-.438 1.21 2.876 2.876 0 0 1-1.08.916c-.446.228-.92.342-1.422.342-1.007 0-1.809-.335-2.406-1.005-.592-.675-.889-1.595-.889-2.762v-.212c0-.72.133-1.36.397-1.921.264-.56.643-.995 1.135-1.305.496-.31 1.082-.465 1.757-.465.829 0 1.517.248 2.064.745.551.497.845 1.142.882 1.934h-1.196c-.037-.478-.219-.87-.547-1.175-.324-.31-.725-.465-1.203-.465-.643 0-1.142.232-1.497.697-.351.46-.527 1.128-.527 2.003v.239c0 .853.176 1.509.527 1.969.35.46.852.69 1.503.69Zm7.202-.957 1.722-5.543h1.354l-2.974 8.538c-.46 1.23-1.192 1.845-2.194 1.845l-.239-.02-.472-.089v-1.025l.342.027c.428 0 .761-.087.998-.26.241-.173.44-.49.595-.95l.28-.752-2.639-7.314h1.381l1.846 5.543Zm10.407-5.543V193h-1.272v-6.351h-2.515l-.151 2.769c-.082 1.271-.296 2.181-.642 2.728-.342.546-.887.831-1.634.854h-.506v-1.114l.363-.028c.41-.045.704-.282.881-.711.178-.428.292-1.221.342-2.378l.137-3.165h4.997Zm3.831 2.549h1.921c.839.009 1.502.228 1.989.657.488.428.732 1.009.732 1.743 0 .738-.251 1.33-.752 1.777-.502.447-1.176.67-2.024.67h-3.131v-7.396h1.265v2.549Zm0 1.033v2.782h1.88c.474 0 .841-.121 1.101-.363.259-.246.389-.581.389-1.004 0-.411-.127-.746-.383-1.005-.25-.265-.603-.401-1.059-.41h-1.928Zm11.658-2.557h-2.481V193h-1.265v-6.371h-2.433v-1.025h6.179v1.025Zm6.108 6.371c-.073-.146-.132-.406-.178-.779-.588.61-1.29.916-2.105.916-.729 0-1.329-.205-1.798-.616-.465-.414-.697-.938-.697-1.572 0-.77.291-1.367.875-1.791.587-.428 1.412-.642 2.474-.642h1.231v-.581c0-.442-.133-.793-.397-1.053-.264-.264-.654-.397-1.169-.397-.451 0-.829.114-1.135.342-.305.228-.458.504-.458.827h-1.271c0-.369.13-.724.39-1.066.264-.346.619-.62 1.066-.82a3.604 3.604 0 0 1 1.483-.301c.853 0 1.52.214 2.003.642.483.424.734 1.01.752 1.757v3.405c0 .679.087 1.219.26 1.62V193h-1.326Zm-2.099-.964a2.22 2.22 0 0 0 1.128-.307c.356-.206.613-.472.773-.8v-1.518h-.992c-1.549 0-2.324.454-2.324 1.36 0 .397.132.707.397.93.264.223.604.335 1.018.335Zm5.677-6.432h1.272v6.364h3.404v-6.364h1.265v6.364h.881l-.123 3.226h-1.134V193h-5.565v-7.396Zm13.395 0h1.264V193h-1.264v-5.394L204.935 193h-1.265v-7.396h1.265v5.4l3.411-5.4Zm9.368 0V193h-1.272v-2.878h-1.907L212.792 193h-1.367l1.859-3.069c-.474-.174-.838-.44-1.093-.8a2.19 2.19 0 0 1-.376-1.272c0-.674.252-1.216.758-1.627.506-.414 1.183-.624 2.031-.628h3.11Zm-4.628 2.269c0 .36.123.652.369.875.246.219.572.33.978.335h2.009v-2.454h-1.818c-.469 0-.843.116-1.121.349a1.1 1.1 0 0 0-.417.895Zm13.938 4.231c.451 0 .845-.136 1.182-.41.338-.273.524-.615.561-1.025h1.196a2.302 2.302 0 0 1-.437 1.21 2.876 2.876 0 0 1-1.08.916 3.087 3.087 0 0 1-1.422.342c-1.007 0-1.81-.335-2.407-1.005-.592-.675-.888-1.595-.888-2.762v-.212c0-.72.132-1.36.396-1.921.265-.56.643-.995 1.135-1.305.497-.31 1.082-.465 1.757-.465.829 0 1.517.248 2.064.745.552.497.846 1.142.882 1.934h-1.196c-.037-.478-.219-.87-.547-1.175-.324-.31-.725-.465-1.203-.465-.643 0-1.142.232-1.497.697-.351.46-.527 1.128-.527 2.003v.239c0 .853.176 1.509.527 1.969.351.46.852.69 1.504.69Zm-224.686 17.5v6.364h2.707v-6.364H6.31v6.364h2.7v-6.364h1.271V217H1.066v-7.396h1.272Zm15.145 0h1.264V217h-1.264v-5.394L14.07 217h-1.264v-7.396h1.264v5.4l3.412-5.4Zm9.962 3.78c0 1.125-.257 2.032-.772 2.72-.515.689-1.212 1.033-2.092 1.033-.898 0-1.604-.285-2.119-.855v3.562h-1.265v-10.24h1.156l.061.82c.515-.638 1.23-.957 2.147-.957.888 0 1.59.335 2.105 1.005.52.67.78 1.602.78 2.796v.116Zm-1.264-.144c0-.834-.178-1.492-.533-1.975-.356-.483-.843-.725-1.463-.725-.766 0-1.34.34-1.723 1.019v3.534c.378.674.957 1.011 1.736 1.011.607 0 1.087-.239 1.443-.717.36-.483.54-1.199.54-2.147Zm2.963-.007c0-.724.141-1.376.424-1.955.287-.578.683-1.025 1.19-1.34.51-.314 1.09-.471 1.742-.471 1.007 0 1.82.348 2.44 1.046.625.697.937 1.624.937 2.782v.089c0 .72-.139 1.367-.417 1.941a3.112 3.112 0 0 1-1.182 1.333c-.51.319-1.099.479-1.764.479-1.003 0-1.816-.349-2.44-1.046-.62-.697-.93-1.62-.93-2.769v-.089Zm1.271.151c0 .82.19 1.479.568 1.975.383.497.893.745 1.53.745.644 0 1.154-.25 1.532-.751.378-.506.567-1.213.567-2.12 0-.811-.193-1.467-.58-1.968-.383-.506-.894-.759-1.532-.759-.624 0-1.128.248-1.51.745-.383.497-.575 1.208-.575 2.133Zm9.772.465h-.923V217h-1.272v-7.396h1.272v3.13h.827l2.488-3.13h1.532l-2.926 3.554L44.357 217H42.75l-2.563-3.151Zm10.462-4.245h1.264V217H50.65v-5.394L47.238 217h-1.265v-7.396h1.265v5.4l3.41-5.4Zm7.974 5.721 2.515-5.721h1.58V217h-1.265v-5.38L59.06 217h-.875l-2.44-5.496V217H54.48v-7.396h1.64l2.503 5.721ZM73.633 217c-.072-.146-.132-.406-.177-.779-.588.61-1.29.916-2.106.916-.729 0-1.328-.205-1.798-.616a2.014 2.014 0 0 1-.697-1.572c0-.77.292-1.367.875-1.791.588-.428 1.413-.642 2.475-.642h1.23v-.581c0-.442-.132-.793-.396-1.053-.265-.264-.654-.397-1.17-.397-.45 0-.829.114-1.134.342-.305.228-.458.504-.458.827h-1.272c0-.369.13-.724.39-1.066.264-.346.62-.62 1.067-.82a3.603 3.603 0 0 1 1.483-.301c.852 0 1.52.214 2.003.642.483.424.734 1.01.752 1.757v3.405c0 .679.086 1.219.26 1.62V217h-1.327Zm-2.098-.964c.396 0 .772-.102 1.128-.307.355-.206.613-.472.772-.8v-1.518h-.991c-1.55 0-2.324.454-2.324 1.36 0 .397.132.707.396.93.265.223.604.335 1.019.335Zm7.871-2.187h-.923V217h-1.271v-7.396h1.271v3.13h.827l2.489-3.13h1.53l-2.925 3.554L83.576 217H81.97l-2.564-3.151Zm11.173-3.22h-2.481V217h-1.265v-6.371h-2.434v-1.025h6.18v1.025Zm6.436-1.025h1.264V217h-1.264v-5.394L93.602 217H92.34v-7.396h1.264v5.4l3.412-5.4Zm3.831 7.396v-7.396h2.884c.985 0 1.739.173 2.263.519.529.342.793.845.793 1.511 0 .342-.102.651-.308.929-.205.274-.508.484-.909.629.447.105.805.31 1.074.616.273.305.41.67.41 1.093 0 .679-.251 1.199-.752 1.559-.497.36-1.201.54-2.113.54h-3.342Zm1.264-3.247v2.228h2.092c.529 0 .923-.098 1.183-.293.264-.196.396-.472.396-.828 0-.738-.542-1.107-1.627-1.107h-2.044Zm0-1.012h1.634c1.185 0 1.777-.346 1.777-1.039s-.56-1.05-1.681-1.073h-1.73v2.112Zm6.703.492c0-.724.141-1.376.423-1.955a3.226 3.226 0 0 1 1.19-1.34c.51-.314 1.091-.471 1.743-.471 1.007 0 1.821.348 2.44 1.046.625.697.937 1.624.937 2.782v.089c0 .72-.139 1.367-.417 1.941a3.11 3.11 0 0 1-1.183 1.333c-.51.319-1.098.479-1.763.479-1.003 0-1.816-.349-2.441-1.046-.62-.697-.929-1.62-.929-2.769v-.089Zm1.271.151c0 .82.189 1.479.567 1.975.383.497.894.745 1.532.745.642 0 1.153-.25 1.531-.751.378-.506.567-1.213.567-2.12 0-.811-.193-1.467-.581-1.968-.383-.506-.893-.759-1.531-.759-.624 0-1.128.248-1.511.745s-.574 1.208-.574 2.133Zm11.727 1.941 2.515-5.721h1.579V217h-1.264v-5.38l-2.393 5.38h-.875l-2.44-5.496V217h-1.265v-7.396h1.641l2.502 5.721Zm10.56 1.675v-7.396h2.885c.985 0 1.739.173 2.263.519.528.342.793.845.793 1.511 0 .342-.103.651-.308.929-.205.274-.508.484-.909.629.447.105.804.31 1.073.616.274.305.41.67.41 1.093 0 .679-.25 1.199-.752 1.559-.496.36-1.2.54-2.112.54h-3.343Zm1.265-3.247v2.228h2.092c.528 0 .923-.098 1.182-.293.265-.196.397-.472.397-.828 0-.738-.542-1.107-1.627-1.107h-2.044Zm0-1.012h1.634c1.185 0 1.777-.346 1.777-1.039s-.56-1.05-1.681-1.073h-1.73v2.112Zm14.997-1.114a.974.974 0 0 0-.396-.82c-.265-.205-.627-.308-1.087-.308-.447 0-.82.116-1.121.349-.296.232-.445.506-.445.82h-1.257c0-.643.268-1.169.806-1.579.538-.41 1.21-.615 2.017-.615.866 0 1.54.186 2.023.56.483.369.725.898.725 1.586 0 .333-.1.638-.301.916-.2.278-.485.499-.854.663.861.292 1.292.866 1.292 1.723 0 .679-.262 1.217-.787 1.613-.524.397-1.223.595-2.098.595-.852 0-1.556-.207-2.112-.622-.552-.419-.828-.985-.828-1.696h1.258c0 .361.16.67.479.93.323.255.724.383 1.203.383.483 0 .873-.112 1.169-.335a1.04 1.04 0 0 0 .444-.868c0-.415-.125-.711-.376-.889-.246-.182-.631-.273-1.155-.273h-1.265v-1.067h1.374c.862-.022 1.292-.378 1.292-1.066Zm9.505 5.373h-1.264v-3.158h-3.398V217h-1.271v-7.396h1.271v3.206h3.398v-3.206h1.264V217Zm7.024 0c-.073-.146-.132-.406-.178-.779-.588.61-1.29.916-2.105.916-.73 0-1.329-.205-1.798-.616a2.014 2.014 0 0 1-.698-1.572c0-.77.292-1.367.875-1.791.588-.428 1.413-.642 2.475-.642h1.23v-.581c0-.442-.132-.793-.396-1.053-.264-.264-.654-.397-1.169-.397-.451 0-.829.114-1.135.342-.305.228-.458.504-.458.827h-1.271c0-.369.13-.724.389-1.066.265-.346.62-.62 1.067-.82a3.6 3.6 0 0 1 1.483-.301c.852 0 1.52.214 2.003.642.483.424.734 1.01.752 1.757v3.405c0 .679.087 1.219.26 1.62V217h-1.326Zm-2.099-.964a2.22 2.22 0 0 0 1.128-.307c.355-.206.613-.472.772-.8v-1.518h-.991c-1.549 0-2.324.454-2.324 1.36 0 .397.132.707.397.93.264.223.603.335 1.018.335Zm11.153.964h-1.272v-2.68a6.703 6.703 0 0 1-1.709.219c-.925 0-1.631-.237-2.119-.711-.483-.474-.729-1.148-.738-2.023v-2.208h1.264v2.249c.023 1.103.554 1.654 1.593 1.654.583 0 1.153-.073 1.709-.219v-3.677h1.272V217Zm7.235-7.396h1.265V217h-1.265v-5.394L178.04 217h-1.265v-7.396h1.265v5.4l3.411-5.4Zm9.211 1.025h-2.481V217h-1.265v-6.371h-2.434v-1.025h6.18v1.025Zm4.173 6.508c-1.003 0-1.818-.328-2.447-.985-.629-.66-.944-1.542-.944-2.645v-.233c0-.733.139-1.387.417-1.962a3.295 3.295 0 0 1 1.176-1.353 2.96 2.96 0 0 1 1.641-.492c.961 0 1.709.317 2.242.95.533.633.8 1.54.8 2.721v.526h-5.011c.018.729.23 1.319.636 1.771.41.446.929.669 1.558.669.447 0 .825-.091 1.135-.273.31-.182.581-.424.813-.725l.773.602c-.62.952-1.55 1.429-2.789 1.429Zm-.157-6.631c-.511 0-.939.187-1.285.56-.347.37-.561.889-.643 1.559h3.705v-.096c-.036-.642-.21-1.139-.52-1.49-.309-.355-.729-.533-1.257-.533Zm10.995-.902V217h-1.272v-6.351h-2.515l-.151 2.769c-.082 1.271-.296 2.181-.642 2.728-.342.546-.887.831-1.634.854h-.506v-1.114l.362-.028c.411-.045.705-.282.882-.711.178-.428.292-1.221.342-2.378l.137-3.165h4.997Zm3.831 2.549h1.921c.838.009 1.502.228 1.989.657.488.428.732 1.009.732 1.743 0 .738-.251 1.33-.752 1.777-.502.447-1.176.67-2.024.67h-3.131v-7.396h1.265v2.549Zm0 1.033v2.782h1.88c.474 0 .841-.121 1.1-.363.26-.246.39-.581.39-1.004 0-.411-.128-.746-.383-1.005-.25-.265-.604-.401-1.059-.41h-1.928ZM222.188 217h-1.265v-3.158h-3.397V217h-1.272v-7.396h1.272v3.206h3.397v-3.206h1.265V217Zm2.122-3.767c0-.724.141-1.376.424-1.955.287-.578.683-1.025 1.189-1.34.51-.314 1.092-.471 1.743-.471 1.007 0 1.821.348 2.441 1.046.624.697.936 1.624.936 2.782v.089c0 .72-.139 1.367-.417 1.941a3.109 3.109 0 0 1-1.182 1.333c-.511.319-1.099.479-1.764.479-1.003 0-1.816-.349-2.441-1.046-.619-.697-.929-1.62-.929-2.769v-.089Zm1.271.151c0 .82.189 1.479.568 1.975.382.497.893.745 1.531.745.642 0 1.153-.25 1.531-.751.378-.506.568-1.213.568-2.12 0-.811-.194-1.467-.582-1.968-.382-.506-.893-.759-1.531-.759-.624 0-1.128.248-1.51.745-.383.497-.575 1.208-.575 2.133Zm12.253-3.78h1.265V217h-1.265v-5.394L234.423 217h-1.264v-7.396h1.264v5.4l3.411-5.4Zm.342-2.694c0 .552-.189.996-.567 1.333-.374.333-.866.499-1.477.499-.611 0-1.105-.168-1.483-.506-.379-.337-.568-.779-.568-1.326h1.033c0 .319.086.57.259.752.174.178.426.267.759.267.319 0 .568-.089.745-.267.183-.178.274-.428.274-.752h1.025ZM3.924 240.104c.451 0 .845-.136 1.182-.41.338-.273.525-.615.561-1.025h1.196a2.294 2.294 0 0 1-.437 1.21 2.874 2.874 0 0 1-1.08.916c-.447.228-.92.342-1.422.342-1.007 0-1.81-.335-2.406-1.005-.593-.675-.89-1.595-.89-2.762v-.212c0-.72.133-1.36.397-1.921a3.03 3.03 0 0 1 1.135-1.305c.497-.31 1.083-.465 1.757-.465.83 0 1.518.248 2.064.745.552.497.846 1.142.882 1.934H5.667c-.036-.478-.219-.87-.547-1.175-.323-.31-.724-.465-1.203-.465-.643 0-1.142.232-1.497.697-.351.46-.526 1.128-.526 2.003v.239c0 .853.175 1.509.526 1.969.35.46.852.69 1.504.69Zm10.277-5.475H11.72V241h-1.265v-6.371H8.022v-1.025h6.18v1.025Zm4.173 6.508c-1.002 0-1.818-.328-2.447-.985-.629-.66-.943-1.542-.943-2.645v-.233c0-.733.139-1.387.416-1.962a3.29 3.29 0 0 1 1.176-1.353 2.959 2.959 0 0 1 1.641-.492c.962 0 1.709.317 2.242.95.533.633.8 1.54.8 2.721v.526h-5.01c.017.729.23 1.319.635 1.771.41.446.93.669 1.558.669.447 0 .825-.091 1.135-.273.31-.182.581-.424.814-.725l.772.602c-.62.952-1.55 1.429-2.789 1.429Zm-.157-6.631c-.51 0-.939.187-1.285.56-.347.37-.56.889-.643 1.559h3.705v-.096c-.036-.642-.21-1.139-.52-1.49-.31-.355-.728-.533-1.257-.533ZM29.199 241h-1.265v-6.351h-3.405V241h-1.271v-7.396h5.94V241Zm5.52.137c-1.004 0-1.82-.328-2.448-.985-.63-.66-.944-1.542-.944-2.645v-.233c0-.733.14-1.387.417-1.962a3.29 3.29 0 0 1 1.176-1.353 2.959 2.959 0 0 1 1.64-.492c.962 0 1.71.317 2.243.95.533.633.8 1.54.8 2.721v.526h-5.01c.017.729.23 1.319.635 1.771.41.446.93.669 1.558.669.447 0 .825-.091 1.135-.273.31-.182.581-.424.814-.725l.772.602c-.62.952-1.55 1.429-2.789 1.429Zm-.158-6.631c-.51 0-.939.187-1.285.56-.347.37-.56.889-.643 1.559h3.705v-.096c-.036-.642-.21-1.139-.52-1.49-.31-.355-.728-.533-1.257-.533ZM45.535 241h-1.264v-3.158h-3.398V241h-1.271v-7.396h1.271v3.206h3.398v-3.206h1.264V241Zm7.243-7.396h1.264V241h-1.264v-5.394L49.367 241h-1.265v-7.396h1.265v5.4l3.41-5.4Zm7.272 3.629c0-.724.142-1.376.424-1.955.287-.578.684-1.025 1.19-1.34.51-.314 1.091-.471 1.743-.471 1.007 0 1.82.348 2.44 1.046.625.697.937 1.624.937 2.782v.089c0 .72-.14 1.367-.417 1.941a3.112 3.112 0 0 1-1.183 1.333c-.51.319-1.098.479-1.764.479-1.002 0-1.816-.349-2.44-1.046-.62-.697-.93-1.62-.93-2.769v-.089Zm1.272.151c0 .82.189 1.479.567 1.975.383.497.893.745 1.531.745.643 0 1.153-.25 1.532-.751.378-.506.567-1.213.567-2.12 0-.811-.194-1.467-.58-1.968-.384-.506-.894-.759-1.532-.759-.624 0-1.128.248-1.51.745-.384.497-.575 1.208-.575 2.133Zm10.715-3.357c.93 0 1.672.313 2.228.937.56.62.841 1.438.841 2.454v.116c0 .697-.134 1.322-.403 1.873a3.013 3.013 0 0 1-1.162 1.279c-.502.3-1.08.451-1.737.451-.993 0-1.793-.331-2.399-.991-.606-.666-.91-1.557-.91-2.673v-.616c0-1.554.288-2.789.862-3.705.579-.916 1.431-1.474 2.557-1.674.638-.114 1.069-.253 1.292-.417a.796.796 0 0 0 .335-.677h1.039c0 .569-.13 1.014-.39 1.333-.255.319-.665.544-1.23.677l-.944.211c-.752.178-1.317.479-1.695.903-.374.419-.617.98-.731 1.681.67-.774 1.485-1.162 2.447-1.162Zm-.246 1.039c-.62 0-1.112.21-1.477.629-.364.415-.547.992-.547 1.73v.109c0 .793.183 1.422.547 1.887.37.46.866.69 1.49.69.63 0 1.126-.232 1.49-.697.365-.465.547-1.144.547-2.037 0-.697-.184-1.256-.553-1.675-.365-.424-.864-.636-1.497-.636Zm7.577 4.081 1.723-5.543h1.353l-2.974 8.538c-.46 1.23-1.191 1.845-2.194 1.845l-.24-.02-.47-.089v-1.025l.341.027c.428 0 .761-.087.998-.26.242-.173.44-.49.595-.95l.28-.752-2.639-7.314h1.381l1.846 5.543Zm7.502.957c.451 0 .845-.136 1.183-.41.337-.273.524-.615.56-1.025h1.197a2.294 2.294 0 0 1-.438 1.21 2.875 2.875 0 0 1-1.08.916c-.447.228-.92.342-1.422.342-1.007 0-1.81-.335-2.406-1.005-.593-.675-.889-1.595-.889-2.762v-.212c0-.72.132-1.36.397-1.921.264-.56.642-.995 1.134-1.305.497-.31 1.083-.465 1.757-.465.83 0 1.518.248 2.065.745.551.497.845 1.142.882 1.934h-1.197c-.036-.478-.219-.87-.547-1.175-.323-.31-.724-.465-1.203-.465-.642 0-1.141.232-1.497.697-.35.46-.526 1.128-.526 2.003v.239c0 .853.175 1.509.526 1.969.351.46.852.69 1.504.69Zm10.845-6.5V241h-1.272v-6.351h-2.515l-.15 2.769c-.083 1.271-.297 2.181-.643 2.728-.342.546-.887.831-1.634.854h-.506v-1.114l.362-.028c.41-.045.704-.282.882-.711.178-.428.292-1.221.342-2.378l.137-3.165h4.997ZM104.73 241c-.072-.146-.132-.406-.177-.779-.588.61-1.29.916-2.106.916-.729 0-1.328-.205-1.798-.616a2.016 2.016 0 0 1-.697-1.572c0-.77.292-1.367.875-1.791.588-.428 1.413-.642 2.475-.642h1.23v-.581c0-.442-.132-.793-.396-1.053-.265-.264-.654-.397-1.169-.397-.451 0-.83.114-1.135.342-.305.228-.458.504-.458.827h-1.271c0-.369.129-.724.389-1.066.265-.346.62-.62 1.067-.82a3.6 3.6 0 0 1 1.483-.301c.852 0 1.52.214 2.003.642.483.424.734 1.01.752 1.757v3.405c0 .679.086 1.219.26 1.62V241h-1.327Zm-2.098-.964c.396 0 .772-.102 1.128-.307.355-.206.613-.472.772-.8v-1.518h-.991c-1.549 0-2.324.454-2.324 1.36 0 .397.132.707.396.93.265.223.604.335 1.019.335Zm5.684.964v-7.396h2.884c.985 0 1.739.173 2.263.519.529.342.793.845.793 1.511 0 .342-.103.651-.308.929-.205.274-.508.484-.909.629.447.105.805.31 1.073.616.274.305.411.67.411 1.093 0 .679-.251 1.199-.752 1.559-.497.36-1.201.54-2.113.54h-3.342Zm1.264-3.247v2.228h2.092c.529 0 .923-.098 1.183-.293.264-.196.396-.472.396-.828 0-.738-.542-1.107-1.627-1.107h-2.044Zm0-1.012h1.634c1.185 0 1.777-.346 1.777-1.039s-.56-1.05-1.681-1.073h-1.73v2.112Zm13.101-3.137V241h-1.272v-6.351h-2.515l-.151 2.769c-.082 1.271-.296 2.181-.642 2.728-.342.546-.887.831-1.634.854h-.506v-1.114l.362-.028c.411-.045.705-.282.882-.711.178-.428.292-1.221.342-2.378l.137-3.165h4.997Zm7.235 0h1.265V241h-1.265v-5.394L126.506 241h-1.265v-7.396h1.265v5.4l3.411-5.4Zm3.831 7.396v-7.396h2.885c.985 0 1.739.173 2.263.519.529.342.793.845.793 1.511 0 .342-.103.651-.308.929-.205.274-.508.484-.909.629.447.105.804.31 1.073.616.274.305.41.67.41 1.093 0 .679-.25 1.199-.752 1.559-.496.36-1.2.54-2.112.54h-3.343Zm1.265-3.247v2.228h2.092c.528 0 .923-.098 1.182-.293.265-.196.397-.472.397-.828 0-.738-.542-1.107-1.627-1.107h-2.044Zm0-1.012h1.634c1.185 0 1.777-.346 1.777-1.039s-.56-1.05-1.681-1.073h-1.73v2.112ZM146.617 241c-.073-.146-.133-.406-.178-.779-.588.61-1.29.916-2.106.916-.729 0-1.328-.205-1.797-.616a2.014 2.014 0 0 1-.698-1.572c0-.77.292-1.367.875-1.791.588-.428 1.413-.642 2.475-.642h1.23v-.581c0-.442-.132-.793-.396-1.053-.264-.264-.654-.397-1.169-.397-.451 0-.829.114-1.135.342-.305.228-.458.504-.458.827h-1.271c0-.369.13-.724.389-1.066.265-.346.62-.62 1.067-.82a3.6 3.6 0 0 1 1.483-.301c.852 0 1.52.214 2.003.642.483.424.734 1.01.752 1.757v3.405c0 .679.087 1.219.26 1.62V241h-1.326Zm-2.099-.964c.396 0 .772-.102 1.128-.307.355-.206.613-.472.772-.8v-1.518h-.991c-1.549 0-2.324.454-2.324 1.36 0 .397.132.707.396.93.265.223.604.335 1.019.335Zm8.637 1.101c-1.003 0-1.819-.328-2.447-.985-.629-.66-.944-1.542-.944-2.645v-.233c0-.733.139-1.387.417-1.962a3.295 3.295 0 0 1 1.176-1.353 2.96 2.96 0 0 1 1.641-.492c.961 0 1.709.317 2.242.95.533.633.8 1.54.8 2.721v.526h-5.011c.018.729.23 1.319.636 1.771.41.446.929.669 1.558.669.447 0 .825-.091 1.135-.273.31-.182.581-.424.813-.725l.773.602c-.62.952-1.55 1.429-2.789 1.429Zm-.157-6.631c-.511 0-.939.187-1.286.56-.346.37-.56.889-.642 1.559h3.705v-.096c-.037-.642-.21-1.139-.52-1.49-.31-.355-.729-.533-1.257-.533Zm10.345.123h-2.481V241h-1.265v-6.371h-2.433v-1.025h6.179v1.025Zm1.678 5.708a.8.8 0 0 1 .192-.547c.132-.146.328-.219.587-.219.26 0 .456.073.588.219a.767.767 0 0 1 .205.547c0 .21-.068.385-.205.526-.132.142-.328.212-.588.212-.259 0-.455-.07-.587-.212a.753.753 0 0 1-.192-.526Z" fill="#757575"/><rect width="270" height="120" rx="4" fill="#F5F4FA"/><g clip-path="url(#a)"><path d="M132.65 57.735h2.332V68.23h-2.332V57.735ZM141.978 62.4h2.332v5.83h-2.332V62.4ZM123.321 65.897h2.332v2.333h-2.332v-2.333ZM116.325 64.731h2.332v3.499h-2.332V64.73Z" fill="#2196F3"/><path d="M103.498 86.886h55.971a3.498 3.498 0 0 0 3.498-3.498v-4.664a3.498 3.498 0 0 0-3.498-3.498h-1.166v-29.08l6.623-6.273a3.518 3.518 0 1 0-1.633-1.67l-4.99 4.731v-2.69a3.499 3.499 0 0 0-3.498-3.498h-46.643a3.499 3.499 0 0 0-3.498 3.498v34.982h-1.166A3.498 3.498 0 0 0 100 78.724v4.664a3.498 3.498 0 0 0 3.498 3.498Zm62.967-51.306a1.166 1.166 0 1 1 0 2.332 1.166 1.166 0 0 1 0-2.332Zm-59.469 4.664c0-.644.522-1.166 1.166-1.166h46.643c.644 0 1.166.522 1.166 1.166v4.897l-2.332 2.216v-4.78c0-.645-.523-1.167-1.166-1.167h-41.978c-.644 0-1.167.522-1.167 1.166v29.152c0 .644.523 1.166 1.167 1.166h41.978c.643 0 1.166-.522 1.166-1.166V50.565l2.332-2.21v26.87h-48.975v-34.98Zm10.495 15.159a3.498 3.498 0 1 0 2.422 6.012l4.053 2.034a1.166 1.166 0 0 0 1.392-.268l8.616-9.694 8.47 6.347c.455.34 1.089.304 1.501-.086l7.361-6.973v17.787h-39.645v-26.82h39.645v5.82l-8.25 7.813-8.541-6.403a1.167 1.167 0 0 0-1.571.157l-8.734 9.828-3.265-1.633a3.34 3.34 0 0 0 .044-.423 3.498 3.498 0 0 0-3.498-3.498Zm1.166 3.498a1.166 1.166 0 1 1-2.332 0 1.166 1.166 0 0 1 2.332 0Zm6.996 18.657h11.661v1.166c0 .644-.522 1.166-1.166 1.166h-9.329a1.166 1.166 0 0 1-1.166-1.166v-1.166Zm-23.321 1.166c0-.644.522-1.166 1.166-1.166h19.823v1.166a3.498 3.498 0 0 0 3.498 3.498h9.329a3.498 3.498 0 0 0 3.498-3.498v-1.166h19.823c.644 0 1.166.522 1.166 1.166v4.664c0 .644-.522 1.166-1.166 1.166h-55.971a1.166 1.166 0 0 1-1.166-1.166v-4.664Z" fill="#212121"/></g><defs><clipPath id="a"><path fill="#fff" transform="translate(100 25)" d="M0 0h70v70H0z"/></clipPath></defs></svg>