<svg width="270" height="251" fill="none" xmlns="http://www.w3.org/2000/svg"><path d="M8.996 163H6.938v-8.292H2.953V163H.903v-9.953h8.093V163Zm5.957-5.25 1.812-4.703h2.215l-3.48 8.21-.28.54c-.515.898-1.304 1.347-2.365 1.347l-.718-.028-.02-1.647c.109.018.286.027.532.027.288 0 .518-.05.69-.15.179-.101.327-.285.445-.554l.253-.649-3.493-7.096h2.208l2.201 4.703ZM28.587 163h-2.05v-4.266h-4V163h-2.05v-9.953h2.05v4.033h4v-4.033h2.05V163Zm5.465-4.067h-1.183V163h-2.05v-9.953h2.05v3.985h.937l2.434-3.985h2.501l-3.069 4.71 3.39 5.243h-2.447l-2.563-4.067Zm13.716-4.225h-3.049V163h-2.05v-8.292H39.66v-1.661h8.107v1.661Zm5.328 3.042 1.812-4.703h2.215l-3.48 8.21-.28.54c-.515.898-1.304 1.347-2.365 1.347l-.718-.028-.02-1.647c.109.018.286.027.532.027.288 0 .518-.05.69-.15.178-.101.327-.285.445-.554l.253-.649-3.493-7.096h2.208l2.201 4.703Zm10.524 3.199h-3.596L59.34 163h-2.18l3.705-9.953h1.9L66.491 163H64.31l-.69-2.051Zm-3.042-1.661h2.488l-1.251-3.726-1.237 3.726Zm15.48-6.241V163H74v-8.292h-2.653l-.164 3.514c-.068 1.185-.219 2.119-.451 2.802-.232.679-.572 1.178-1.019 1.497-.446.315-1.057.474-1.832.479h-.533v-1.647l.342-.035c.515-.068.882-.364 1.1-.888.224-.529.365-1.468.424-2.817l.171-4.566h6.672Zm4.261 3.589h1.6c1.17 0 2.098.285 2.782.854.688.565 1.032 1.329 1.032 2.29 0 .966-.342 1.743-1.025 2.331-.68.584-1.584.88-2.714.889h-3.74v-9.953h2.065v3.589Zm0 1.654v3.063h1.634c.524 0 .94-.144 1.25-.431.315-.287.472-.672.472-1.155 0-.452-.15-.807-.45-1.067-.297-.264-.705-.401-1.224-.41h-1.682ZM95.552 163h-2.05v-4.266h-4V163h-2.05v-9.953h2.05v4.033h4v-4.033h2.05V163Zm10.394-4.751c0 .98-.173 1.839-.519 2.577-.347.738-.844 1.308-1.491 1.709-.642.401-1.381.602-2.215.602-.824 0-1.56-.199-2.208-.595-.647-.396-1.148-.962-1.503-1.695-.356-.739-.536-1.586-.54-2.543v-.492c0-.98.175-1.842.526-2.584.355-.748.854-1.32 1.497-1.716.647-.401 1.385-.602 2.215-.602.829 0 1.565.201 2.208.602.647.396 1.146.968 1.497 1.716.355.742.533 1.601.533 2.577v.444Zm-2.078-.451c0-1.044-.187-1.837-.561-2.379-.373-.542-.906-.814-1.599-.814-.688 0-1.219.269-1.593.807-.374.533-.563 1.317-.567 2.352v.485c0 1.016.186 1.805.56 2.365.374.561.912.841 1.613.841.689 0 1.217-.269 1.586-.807.37-.542.556-1.33.561-2.365v-.485Zm11.802 1.887c-.078 1.071-.474 1.914-1.19 2.529-.711.615-1.649.923-2.816.923-1.276 0-2.281-.429-3.015-1.285-.729-.862-1.093-2.042-1.093-3.541v-.609c0-.957.168-1.8.505-2.529.338-.729.818-1.288 1.443-1.675.629-.392 1.358-.588 2.187-.588 1.149 0 2.074.308 2.776.923s1.107 1.479 1.216 2.591h-2.05c-.05-.643-.23-1.108-.54-1.395-.306-.291-.773-.437-1.402-.437-.683 0-1.196.246-1.538.738-.337.488-.51 1.246-.519 2.276v.752c0 1.076.161 1.862.485 2.359.328.497.843.745 1.545.745.633 0 1.105-.144 1.415-.431.314-.291.494-.74.54-1.346h2.051Zm9.054-4.977h-3.049V163h-2.051v-8.292h-3.008v-1.661h8.108v1.661Zm3.756 1.928h1.599c1.171 0 2.099.285 2.782.854.689.565 1.033 1.329 1.033 2.29 0 .966-.342 1.743-1.026 2.331-.679.584-1.583.88-2.714.889h-3.739v-9.953h2.065v3.589Zm0 1.654v3.063h1.633c.524 0 .941-.144 1.251-.431.315-.287.472-.672.472-1.155 0-.452-.15-.807-.451-1.067-.296-.264-.704-.401-1.224-.41h-1.681Z" fill="#212121"/><path d="M6.262 185.72c0-.529-.194-.948-.581-1.258-.383-.315-.923-.472-1.62-.472-.584 0-1.074.162-1.47.486-.392.319-.588.715-.588 1.189H.69c0-.529.144-1.003.431-1.422.292-.419.697-.745 1.217-.977a4.102 4.102 0 0 1 1.723-.356c1.112 0 1.975.251 2.59.752.616.497.923 1.19.923 2.078 0 .461-.141.88-.424 1.258-.282.378-.676.677-1.182.896 1.171.391 1.757 1.168 1.757 2.331 0 .893-.333 1.601-.998 2.126-.666.524-1.554.786-2.666.786-.661 0-1.263-.116-1.805-.349-.538-.237-.957-.572-1.258-1.005-.3-.433-.451-.948-.451-1.545h1.312c0 .524.208.962.622 1.313.415.346.942.519 1.58.519.715 0 1.285-.166 1.709-.499.428-.332.642-.772.642-1.319 0-1.167-.722-1.761-2.167-1.784h-1.23v-1.08h1.223c.666-.014 1.17-.164 1.511-.451.342-.288.513-.693.513-1.217Zm7.994 7.28c-.073-.146-.132-.406-.178-.779-.588.61-1.29.916-2.105.916-.73 0-1.329-.205-1.798-.616a2.014 2.014 0 0 1-.697-1.572c0-.77.291-1.367.875-1.791.588-.428 1.412-.642 2.474-.642h1.23v-.581c0-.442-.132-.793-.396-1.053-.264-.264-.654-.397-1.169-.397-.45 0-.83.114-1.135.342-.305.228-.457.504-.457.827H9.627c0-.369.13-.724.39-1.066.264-.346.62-.62 1.066-.82a3.603 3.603 0 0 1 1.484-.301c.852 0 1.52.214 2.002.642.483.424.734 1.01.752 1.757v3.405c0 .679.087 1.219.26 1.62V193h-1.326Zm-2.099-.964c.397 0 .773-.102 1.128-.307.356-.206.613-.472.773-.8v-1.518h-.992c-1.549 0-2.324.454-2.324 1.36 0 .397.132.707.397.93.264.223.604.335 1.018.335Zm5.506-.068.438-.54c.492-.638.772-1.595.84-2.871l.117-2.953h4.764v6.364h.95v3.206h-1.264V193h-5.161v2.174h-1.265l.007-3.206h.574Zm1.497 0h3.398v-5.196H20.28l-.075 1.764c-.077 1.472-.426 2.616-1.046 3.432Zm12 1.032c-.073-.146-.132-.406-.177-.779-.588.61-1.29.916-2.106.916-.729 0-1.328-.205-1.798-.616a2.014 2.014 0 0 1-.697-1.572c0-.77.292-1.367.875-1.791.588-.428 1.413-.642 2.475-.642h1.23v-.581c0-.442-.132-.793-.396-1.053-.265-.264-.654-.397-1.17-.397-.45 0-.829.114-1.134.342-.305.228-.458.504-.458.827h-1.271c0-.369.13-.724.39-1.066.263-.346.619-.62 1.066-.82a3.604 3.604 0 0 1 1.483-.301c.852 0 1.52.214 2.003.642.483.424.734 1.01.752 1.757v3.405c0 .679.086 1.219.26 1.62V193H31.16Zm-2.098-.964c.396 0 .772-.102 1.128-.307.355-.206.613-.472.772-.8v-1.518h-.991c-1.55 0-2.324.454-2.324 1.36 0 .397.132.707.396.93.265.223.604.335 1.019.335Zm11.152.964h-1.271v-2.68a6.701 6.701 0 0 1-1.71.219c-.924 0-1.63-.237-2.118-.711-.483-.474-.73-1.148-.739-2.023v-2.208h1.265v2.249c.023 1.103.554 1.654 1.593 1.654.583 0 1.153-.073 1.709-.219v-3.677h1.271V193Zm7.017 0c-.073-.146-.132-.406-.178-.779-.588.61-1.29.916-2.105.916-.73 0-1.329-.205-1.798-.616a2.014 2.014 0 0 1-.697-1.572c0-.77.291-1.367.874-1.791.588-.428 1.413-.642 2.475-.642h1.23v-.581c0-.442-.131-.793-.396-1.053-.264-.264-.654-.397-1.169-.397-.451 0-.83.114-1.135.342-.305.228-.458.504-.458.827h-1.271c0-.369.13-.724.39-1.066.264-.346.62-.62 1.066-.82a3.604 3.604 0 0 1 1.483-.301c.853 0 1.52.214 2.003.642.483.424.734 1.01.752 1.757v3.405c0 .679.087 1.219.26 1.62V193h-1.326Zm-2.099-.964c.397 0 .773-.102 1.128-.307.356-.206.613-.472.773-.8v-1.518h-.992c-1.55 0-2.324.454-2.324 1.36 0 .397.132.707.397.93.264.223.604.335 1.018.335Zm9.125-2.803c0-.724.142-1.376.424-1.955.287-.578.684-1.025 1.19-1.34.51-.314 1.091-.471 1.743-.471 1.007 0 1.82.348 2.44 1.046.625.697.937 1.624.937 2.782v.089c0 .72-.14 1.367-.417 1.941a3.113 3.113 0 0 1-1.183 1.333c-.51.319-1.098.479-1.764.479-1.002 0-1.816-.349-2.44-1.046-.62-.697-.93-1.62-.93-2.769v-.089Zm1.272.151c0 .82.189 1.479.567 1.975.383.497.894.745 1.532.745.642 0 1.153-.25 1.53-.751.379-.506.568-1.213.568-2.12 0-.811-.194-1.467-.58-1.968-.384-.506-.894-.759-1.532-.759-.624 0-1.128.248-1.51.745-.384.497-.575 1.208-.575 2.133Zm13.716 0c0 1.125-.258 2.032-.773 2.72-.515.689-1.212 1.033-2.091 1.033-.898 0-1.605-.285-2.12-.855v3.562h-1.264v-10.24h1.155l.061.82c.516-.638 1.231-.957 2.147-.957.889 0 1.59.335 2.106 1.005.519.67.779 1.602.779 2.796v.116Zm-1.265-.144c0-.834-.178-1.492-.533-1.975-.356-.483-.843-.725-1.463-.725-.766 0-1.34.34-1.723 1.019v3.534c.379.674.957 1.011 1.737 1.011.606 0 1.087-.239 1.442-.717.36-.483.54-1.199.54-2.147Zm8.076-2.591h-3.41V193h-1.272v-7.396h4.682v1.045ZM82.143 193c-.073-.146-.132-.406-.177-.779-.588.61-1.29.916-2.106.916-.729 0-1.328-.205-1.798-.616a2.014 2.014 0 0 1-.697-1.572c0-.77.292-1.367.875-1.791.588-.428 1.413-.642 2.475-.642h1.23v-.581c0-.442-.132-.793-.396-1.053-.265-.264-.654-.397-1.17-.397-.45 0-.829.114-1.134.342-.305.228-.458.504-.458.827h-1.272c0-.369.13-.724.39-1.066.264-.346.62-.62 1.067-.82a3.604 3.604 0 0 1 1.483-.301c.852 0 1.52.214 2.003.642.483.424.734 1.01.752 1.757v3.405c0 .679.086 1.219.26 1.62V193h-1.327Zm-2.098-.964c.396 0 .772-.102 1.128-.307.355-.206.613-.472.772-.8v-1.518h-.991c-1.55 0-2.324.454-2.324 1.36 0 .397.132.707.396.93.264.223.604.335 1.019.335Zm11.61.964h-1.264v-3.158h-3.398V193h-1.271v-7.396h1.271v3.206h3.398v-3.206h1.264V193Zm7.242-7.396h1.265V193h-1.265v-5.394L95.487 193h-1.265v-7.396h1.264v5.4l3.411-5.4Zm7.783 2.023a.972.972 0 0 0-.397-.82c-.264-.205-.626-.308-1.087-.308-.446 0-.82.116-1.121.349-.296.232-.444.506-.444.82h-1.258c0-.643.269-1.169.807-1.579.537-.41 1.21-.615 2.016-.615.866 0 1.541.186 2.024.56.483.369.724.898.724 1.586 0 .333-.1.638-.3.916-.201.278-.486.499-.855.663.861.292 1.292.866 1.292 1.723 0 .679-.262 1.217-.786 1.613-.524.397-1.224.595-2.099.595-.852 0-1.556-.207-2.112-.622-.551-.419-.827-.985-.827-1.696h1.258c0 .361.159.67.478.93.324.255.725.383 1.203.383.483 0 .873-.112 1.169-.335.296-.223.445-.513.445-.868 0-.415-.126-.711-.376-.889-.246-.182-.632-.273-1.156-.273h-1.264v-1.067h1.374c.861-.022 1.292-.378 1.292-1.066Zm8.028 5.373c-.073-.146-.132-.406-.178-.779-.588.61-1.289.916-2.105.916-.729 0-1.329-.205-1.798-.616-.465-.414-.697-.938-.697-1.572 0-.77.291-1.367.875-1.791.588-.428 1.413-.642 2.474-.642h1.231v-.581c0-.442-.132-.793-.397-1.053-.264-.264-.654-.397-1.169-.397-.451 0-.829.114-1.134.342-.306.228-.458.504-.458.827h-1.272c0-.369.13-.724.39-1.066a2.7 2.7 0 0 1 1.066-.82 3.605 3.605 0 0 1 1.484-.301c.852 0 1.52.214 2.003.642.483.424.733 1.01.752 1.757v3.405c0 .679.086 1.219.259 1.62V193h-1.326Zm-2.099-.964a2.22 2.22 0 0 0 1.128-.307c.356-.206.613-.472.773-.8v-1.518h-.991c-1.55 0-2.325.454-2.325 1.36 0 .397.133.707.397.93.264.223.604.335 1.018.335Zm5.677-6.432h1.272v6.364h3.404v-6.364h1.265v6.364h.882l-.123 3.226h-1.135V193h-5.565v-7.396Zm13.395 0h1.265V193h-1.265v-5.394L128.27 193h-1.265v-7.396h1.265v5.4l3.411-5.4Zm8.5 0h1.265V193h-1.265v-5.394L136.77 193h-1.265v-7.396h1.265v5.4l3.411-5.4Zm3.674 9.378-.718-.492c.429-.597.652-1.212.67-1.845v-1.142h1.237v.991a3.1 3.1 0 0 1-.341 1.381c-.224.46-.506.829-.848 1.107Zm7.218-1.982v-7.396h2.885c.984 0 1.738.173 2.262.519.529.342.793.845.793 1.511 0 .342-.102.651-.307.929-.205.274-.508.484-.91.629.447.105.805.31 1.074.616.273.305.41.67.41 1.093 0 .679-.251 1.199-.752 1.559-.497.36-1.201.54-2.112.54h-3.343Zm1.264-3.247v2.228h2.092c.529 0 .923-.098 1.183-.293.264-.196.396-.472.396-.828 0-.738-.542-1.107-1.627-1.107h-2.044Zm0-1.012h1.634c1.185 0 1.778-.346 1.778-1.039s-.561-1.05-1.682-1.073h-1.73v2.112Zm10.595.492c0-.724.142-1.376.424-1.955a3.226 3.226 0 0 1 1.19-1.34c.51-.314 1.091-.471 1.743-.471 1.007 0 1.82.348 2.44 1.046.625.697.937 1.624.937 2.782v.089c0 .72-.139 1.367-.417 1.941a3.117 3.117 0 0 1-1.183 1.333c-.51.319-1.098.479-1.763.479-1.003 0-1.817-.349-2.441-1.046-.62-.697-.93-1.62-.93-2.769v-.089Zm1.272.151c0 .82.189 1.479.567 1.975.383.497.893.745 1.532.745.642 0 1.153-.25 1.531-.751.378-.506.567-1.213.567-2.12 0-.811-.194-1.467-.581-1.968-.383-.506-.893-.759-1.531-.759-.625 0-1.128.248-1.511.745s-.574 1.208-.574 2.133Zm10.435 2.72c.451 0 .845-.136 1.182-.41.337-.273.524-.615.561-1.025h1.196a2.295 2.295 0 0 1-.438 1.21 2.861 2.861 0 0 1-1.08.916 3.08 3.08 0 0 1-1.421.342c-1.008 0-1.81-.335-2.407-1.005-.592-.675-.888-1.595-.888-2.762v-.212c0-.72.132-1.36.396-1.921.264-.56.643-.995 1.135-1.305.497-.31 1.082-.465 1.757-.465.829 0 1.517.248 2.064.745.552.497.846 1.142.882 1.934h-1.196c-.037-.478-.219-.87-.547-1.175-.324-.31-.725-.465-1.203-.465-.643 0-1.142.232-1.497.697-.351.46-.527 1.128-.527 2.003v.239c0 .853.176 1.509.527 1.969.351.46.852.69 1.504.69Zm4.446-2.871c0-.724.141-1.376.424-1.955.287-.578.683-1.025 1.189-1.34.511-.314 1.092-.471 1.743-.471 1.007 0 1.821.348 2.441 1.046.624.697.936 1.624.936 2.782v.089c0 .72-.139 1.367-.417 1.941a3.109 3.109 0 0 1-1.182 1.333c-.511.319-1.099.479-1.764.479-1.003 0-1.816-.349-2.44-1.046-.62-.697-.93-1.62-.93-2.769v-.089Zm1.271.151c0 .82.189 1.479.568 1.975.383.497.893.745 1.531.745.643 0 1.153-.25 1.531-.751.379-.506.568-1.213.568-2.12 0-.811-.194-1.467-.581-1.968-.383-.506-.894-.759-1.532-.759-.624 0-1.128.248-1.51.745-.383.497-.575 1.208-.575 2.133Zm10.715-3.357c.93 0 1.673.313 2.229.937.56.62.841 1.438.841 2.454v.116c0 .697-.135 1.322-.404 1.873a3.013 3.013 0 0 1-1.162 1.279c-.501.3-1.08.451-1.736.451-.994 0-1.793-.331-2.4-.991-.606-.666-.909-1.557-.909-2.673v-.616c0-1.554.287-2.789.862-3.705.578-.916 1.431-1.474 2.556-1.674.638-.114 1.069-.253 1.292-.417a.794.794 0 0 0 .335-.677h1.039c0 .569-.13 1.014-.389 1.333-.256.319-.666.544-1.231.677l-.943.211c-.752.178-1.317.479-1.696.903-.373.419-.617.98-.731 1.681.67-.774 1.486-1.162 2.447-1.162Zm-.246 1.039c-.62 0-1.112.21-1.476.629-.365.415-.547.992-.547 1.73v.109c0 .793.182 1.422.547 1.887.369.46.866.69 1.49.69.629 0 1.126-.232 1.49-.697.365-.465.547-1.144.547-2.037 0-.697-.185-1.256-.554-1.675-.364-.424-.863-.636-1.497-.636Zm8.227 6.071c-1.003 0-1.819-.328-2.447-.985-.629-.66-.944-1.542-.944-2.645v-.233c0-.733.139-1.387.417-1.962a3.295 3.295 0 0 1 1.176-1.353 2.96 2.96 0 0 1 1.641-.492c.961 0 1.709.317 2.242.95.533.633.8 1.54.8 2.721v.526h-5.011c.018.729.23 1.319.636 1.771.41.446.929.669 1.558.669.447 0 .825-.091 1.135-.273.31-.182.581-.424.813-.725l.773.602c-.62.952-1.55 1.429-2.789 1.429Zm-.157-6.631c-.511 0-.939.187-1.286.56-.346.37-.56.889-.642 1.559h3.705v-.096c-.037-.642-.21-1.139-.52-1.49-.309-.355-.729-.533-1.257-.533ZM209.869 193h-1.264v-3.158h-3.398V193h-1.271v-7.396h1.271v3.206h3.398v-3.206h1.264V193Zm8.5 0h-1.264v-3.158h-3.398V193h-1.271v-7.396h1.271v3.206h3.398v-3.206h1.264V193Zm2.123-3.767c0-.724.141-1.376.423-1.955a3.226 3.226 0 0 1 1.19-1.34c.51-.314 1.091-.471 1.743-.471 1.007 0 1.821.348 2.44 1.046.625.697.937 1.624.937 2.782v.089c0 .72-.139 1.367-.417 1.941a3.117 3.117 0 0 1-1.183 1.333c-.51.319-1.098.479-1.763.479-1.003 0-1.816-.349-2.441-1.046-.62-.697-.929-1.62-.929-2.769v-.089Zm1.271.151c0 .82.189 1.479.567 1.975.383.497.894.745 1.532.745.642 0 1.153-.25 1.531-.751.378-.506.567-1.213.567-2.12 0-.811-.193-1.467-.581-1.968-.383-.506-.893-.759-1.531-.759-.624 0-1.128.248-1.511.745s-.574 1.208-.574 2.133Zm10.435 2.72c.451 0 .845-.136 1.182-.41.338-.273.524-.615.561-1.025h1.196a2.302 2.302 0 0 1-.437 1.21 2.876 2.876 0 0 1-1.08.916 3.087 3.087 0 0 1-1.422.342c-1.007 0-1.81-.335-2.407-1.005-.592-.675-.888-1.595-.888-2.762v-.212c0-.72.132-1.36.396-1.921.265-.56.643-.995 1.135-1.305.497-.31 1.082-.465 1.757-.465.829 0 1.517.248 2.064.745.552.497.846 1.142.882 1.934h-1.196c-.037-.478-.219-.87-.547-1.175-.324-.31-.725-.465-1.203-.465-.643 0-1.142.232-1.497.697-.351.46-.527 1.128-.527 2.003v.239c0 .853.176 1.509.527 1.969.351.46.852.69 1.504.69Zm10.277-5.475h-2.481V193h-1.265v-6.371h-2.434v-1.025h6.18v1.025Zm6.436-1.025h1.264V193h-1.264v-5.394L245.5 193h-1.265v-7.396h1.265v5.4l3.411-5.4ZM6.856 213.787h-.888V217H4.703v-3.213h-.889L1.744 217h-1.6l2.645-3.828-2.393-3.568h1.532l1.907 3.062h.868v-3.062h1.265v3.062h.861l1.921-3.062h1.531l-2.4 3.575L10.528 217h-1.6l-2.07-3.213Zm8.172 3.35c-1.002 0-1.818-.328-2.447-.985-.629-.66-.943-1.542-.943-2.645v-.233c0-.733.139-1.387.417-1.962a3.29 3.29 0 0 1 1.175-1.353 2.959 2.959 0 0 1 1.641-.492c.962 0 1.71.317 2.242.95.534.633.8 1.54.8 2.721v.526h-5.01c.018.729.23 1.319.635 1.771.41.446.93.669 1.559.669.446 0 .825-.091 1.135-.273.31-.182.58-.424.813-.725l.772.602c-.62.952-1.549 1.429-2.789 1.429Zm-.157-6.631c-.51 0-.939.187-1.285.56-.346.37-.56.889-.643 1.559h3.705v-.096c-.036-.642-.21-1.139-.519-1.49-.31-.355-.73-.533-1.258-.533Zm15.073 2.878c0 1.125-.258 2.032-.773 2.72-.515.689-1.212 1.033-2.092 1.033-.898 0-1.604-.285-2.119-.855v3.562h-1.265v-10.24h1.156l.061.82c.515-.638 1.23-.957 2.147-.957.889 0 1.59.335 2.105 1.005.52.67.78 1.602.78 2.796v.116Zm-1.265-.144c0-.834-.178-1.492-.533-1.975-.356-.483-.843-.725-1.463-.725-.766 0-1.34.34-1.723 1.019v3.534c.378.674.957 1.011 1.736 1.011.607 0 1.087-.239 1.443-.717.36-.483.54-1.199.54-2.147Zm7.864 3.76c-.073-.146-.132-.406-.178-.779-.587.61-1.29.916-2.105.916-.73 0-1.328-.205-1.798-.616a2.014 2.014 0 0 1-.697-1.572c0-.77.292-1.367.875-1.791.588-.428 1.413-.642 2.475-.642h1.23v-.581c0-.442-.132-.793-.396-1.053-.265-.264-.654-.397-1.17-.397-.45 0-.829.114-1.134.342-.306.228-.458.504-.458.827h-1.272c0-.369.13-.724.39-1.066.264-.346.62-.62 1.066-.82a3.604 3.604 0 0 1 1.484-.301c.852 0 1.52.214 2.003.642.483.424.734 1.01.752 1.757v3.405c0 .679.086 1.219.26 1.62V217h-1.327Zm-2.098-.964c.396 0 .772-.102 1.128-.307.355-.206.612-.472.772-.8v-1.518h-.991c-1.55 0-2.324.454-2.324 1.36 0 .397.132.707.396.93.264.223.604.335 1.019.335Zm9.826-.711 2.515-5.721h1.58V217H47.1v-5.38L44.708 217h-.875l-2.44-5.496V217h-1.265v-7.396h1.64l2.503 5.721Zm8.855-1.476h-.922V217h-1.272v-7.396h1.272v3.13h.827l2.488-3.13h1.531l-2.925 3.554L57.295 217H55.69l-2.564-3.151Zm10.462-4.245h1.265V217h-1.265v-5.394L60.178 217h-1.265v-7.396h1.264v5.4l3.411-5.4Zm12.393 0h1.265V217H75.98v-5.394L72.57 217h-1.265v-7.396h1.265v5.4l3.411-5.4Zm11.867 5.721 2.515-5.721h1.58V217h-1.265v-5.38L88.285 217h-.875l-2.44-5.496V217h-1.265v-7.396h1.64l2.502 5.721Zm9.62 1.812c-1.002 0-1.818-.328-2.447-.985-.629-.66-.943-1.542-.943-2.645v-.233c0-.733.14-1.387.417-1.962a3.29 3.29 0 0 1 1.176-1.353 2.958 2.958 0 0 1 1.64-.492c.962 0 1.71.317 2.243.95.533.633.799 1.54.799 2.721v.526h-5.01c.018.729.23 1.319.635 1.771.41.446.93.669 1.56.669.446 0 .824-.091 1.134-.273.31-.182.58-.424.813-.725l.773.602c-.62.952-1.55 1.429-2.79 1.429Zm-.157-6.631c-.51 0-.938.187-1.285.56-.346.37-.56.889-.642 1.559h3.705v-.096c-.037-.642-.21-1.139-.52-1.49-.31-.355-.729-.533-1.258-.533Zm7.899 5.598c.451 0 .845-.136 1.183-.41a1.44 1.44 0 0 0 .56-1.025h1.196a2.285 2.285 0 0 1-.437 1.21 2.876 2.876 0 0 1-1.08.916 3.087 3.087 0 0 1-1.422.342c-1.007 0-1.809-.335-2.406-1.005-.593-.675-.889-1.595-.889-2.762v-.212c0-.72.132-1.36.397-1.921.264-.56.642-.995 1.134-1.305.497-.31 1.083-.465 1.757-.465.83 0 1.518.248 2.065.745.551.497.845 1.142.881 1.934h-1.196c-.036-.478-.219-.87-.547-1.175-.323-.31-.724-.465-1.203-.465-.642 0-1.141.232-1.497.697-.351.46-.526 1.128-.526 2.003v.239c0 .853.175 1.509.526 1.969.351.46.852.69 1.504.69Zm10.277-5.475h-2.481V217h-1.265v-6.371h-2.433v-1.025h6.179v1.025Zm1.029 2.604c0-.724.141-1.376.424-1.955.287-.578.683-1.025 1.189-1.34.511-.314 1.092-.471 1.743-.471 1.007 0 1.821.348 2.441 1.046.624.697.936 1.624.936 2.782v.089c0 .72-.139 1.367-.417 1.941a3.109 3.109 0 0 1-1.182 1.333c-.511.319-1.099.479-1.764.479-1.003 0-1.816-.349-2.44-1.046-.62-.697-.93-1.62-.93-2.769v-.089Zm1.271.151c0 .82.189 1.479.568 1.975.383.497.893.745 1.531.745.643 0 1.153-.25 1.531-.751.378-.506.568-1.213.568-2.12 0-.811-.194-1.467-.581-1.968-.383-.506-.894-.759-1.532-.759-.624 0-1.128.248-1.51.745-.383.497-.575 1.208-.575 2.133Zm11.026-.151c0-.724.141-1.376.424-1.955.287-.578.683-1.025 1.189-1.34.511-.314 1.092-.471 1.743-.471 1.007 0 1.821.348 2.441 1.046.624.697.936 1.624.936 2.782v.089c0 .72-.139 1.367-.417 1.941a3.109 3.109 0 0 1-1.182 1.333c-.511.319-1.099.479-1.764.479-1.003 0-1.816-.349-2.44-1.046-.62-.697-.93-1.62-.93-2.769v-.089Zm1.271.151c0 .82.189 1.479.568 1.975.383.497.893.745 1.531.745.643 0 1.153-.25 1.531-.751.378-.506.568-1.213.568-2.12 0-.811-.194-1.467-.581-1.968-.383-.506-.894-.759-1.532-.759-.624 0-1.128.248-1.51.745-.383.497-.575 1.208-.575 2.133Zm10.715-3.357c.93 0 1.673.313 2.229.937.56.62.841 1.438.841 2.454v.116c0 .697-.135 1.322-.404 1.873a3.013 3.013 0 0 1-1.162 1.279c-.501.3-1.08.451-1.736.451-.994 0-1.793-.331-2.4-.991-.606-.666-.909-1.557-.909-2.673v-.616c0-1.554.287-2.789.862-3.705.578-.916 1.431-1.474 2.556-1.674.638-.114 1.069-.253 1.292-.417a.794.794 0 0 0 .335-.677h1.039c0 .569-.13 1.014-.389 1.333-.256.319-.666.544-1.231.677l-.943.211c-.752.178-1.317.479-1.696.903-.373.419-.617.98-.731 1.681.67-.774 1.486-1.162 2.447-1.162Zm-.246 1.039c-.62 0-1.112.21-1.476.629-.365.415-.547.992-.547 1.73v.109c0 .793.182 1.422.547 1.887.369.46.865.69 1.49.69.629 0 1.125-.232 1.49-.697.365-.465.547-1.144.547-2.037 0-.697-.185-1.256-.554-1.675-.364-.424-.863-.636-1.497-.636Zm7.577 4.081 1.723-5.543h1.354l-2.974 8.538c-.46 1.23-1.192 1.845-2.194 1.845l-.24-.02-.471-.089v-1.025l.341.027c.429 0 .762-.087.998-.26.242-.173.44-.49.595-.95l.28-.752-2.638-7.314h1.381l1.845 5.543ZM158.346 217h-1.271v-2.68a6.703 6.703 0 0 1-1.709.219c-.925 0-1.632-.237-2.119-.711-.483-.474-.729-1.148-.739-2.023v-2.208h1.265v2.249c.023 1.103.554 1.654 1.593 1.654.583 0 1.153-.073 1.709-.219v-3.677h1.271V217Zm5.52.137c-1.003 0-1.818-.328-2.447-.985-.629-.66-.944-1.542-.944-2.645v-.233c0-.733.139-1.387.417-1.962a3.295 3.295 0 0 1 1.176-1.353 2.96 2.96 0 0 1 1.641-.492c.961 0 1.709.317 2.242.95.533.633.8 1.54.8 2.721v.526h-5.011c.018.729.23 1.319.636 1.771.41.446.929.669 1.558.669.447 0 .825-.091 1.135-.273.31-.182.581-.424.814-.725l.772.602c-.62.952-1.55 1.429-2.789 1.429Zm-.157-6.631c-.511 0-.939.187-1.285.56-.347.37-.561.889-.643 1.559h3.705v-.096c-.036-.642-.21-1.139-.52-1.49-.309-.355-.729-.533-1.257-.533ZM174.683 217h-1.264v-3.158h-3.398V217h-1.271v-7.396h1.271v3.206h3.398v-3.206h1.264V217Zm7.243-7.396h1.264V217h-1.264v-5.394L178.514 217h-1.264v-7.396h1.264v5.4l3.412-5.4Zm9.368 0V217h-1.272v-2.878h-1.907L186.372 217h-1.367l1.859-3.069c-.474-.174-.838-.44-1.094-.8a2.197 2.197 0 0 1-.376-1.272c0-.674.253-1.216.759-1.627.506-.414 1.183-.624 2.031-.628h3.11Zm-4.628 2.269c0 .36.123.652.369.875.246.219.572.33.978.335h2.009v-2.454h-1.818c-.469 0-.843.116-1.121.349a1.1 1.1 0 0 0-.417.895Zm13.275 1.976h-.923V217h-1.272v-7.396h1.272v3.13h.827l2.488-3.13h1.531l-2.925 3.554L204.11 217h-1.606l-2.563-3.151ZM210.184 217c-.073-.146-.132-.406-.178-.779-.588.61-1.29.916-2.105.916-.73 0-1.329-.205-1.798-.616a2.014 2.014 0 0 1-.698-1.572c0-.77.292-1.367.875-1.791.588-.428 1.413-.642 2.475-.642h1.231v-.581c0-.442-.133-.793-.397-1.053-.264-.264-.654-.397-1.169-.397-.451 0-.829.114-1.135.342-.305.228-.458.504-.458.827h-1.271c0-.369.13-.724.389-1.066.265-.346.62-.62 1.067-.82a3.604 3.604 0 0 1 1.483-.301c.852 0 1.52.214 2.003.642.483.424.734 1.01.752 1.757v3.405c0 .679.087 1.219.26 1.62V217h-1.326Zm-2.099-.964a2.22 2.22 0 0 0 1.128-.307c.356-.206.613-.472.773-.8v-1.518h-.992c-1.549 0-2.324.454-2.324 1.36 0 .397.132.707.397.93.264.223.603.335 1.018.335Zm5.506-.068.438-.54c.492-.638.772-1.595.84-2.871l.117-2.953h4.764v6.364h.95v3.206h-1.264V217h-5.161v2.174h-1.265l.007-3.206h.574Zm1.497 0h3.398v-5.196h-2.277l-.075 1.764c-.077 1.472-.426 2.616-1.046 3.432Zm13.682-2.584c0 1.125-.258 2.032-.773 2.72-.515.689-1.212 1.033-2.091 1.033-.898 0-1.605-.285-2.12-.855v3.562h-1.264v-10.24h1.155l.062.82c.515-.638 1.23-.957 2.146-.957.889 0 1.591.335 2.106 1.005.519.67.779 1.602.779 2.796v.116Zm-1.265-.144c0-.834-.178-1.492-.533-1.975-.355-.483-.843-.725-1.463-.725-.766 0-1.34.34-1.723 1.019v3.534c.379.674.957 1.011 1.737 1.011.606 0 1.087-.239 1.442-.717.36-.483.54-1.199.54-2.147Zm2.963-.007c0-.724.141-1.376.424-1.955a3.23 3.23 0 0 1 1.189-1.34c.511-.314 1.092-.471 1.744-.471 1.007 0 1.82.348 2.44 1.046.624.697.937 1.624.937 2.782v.089c0 .72-.139 1.367-.417 1.941a3.117 3.117 0 0 1-1.183 1.333c-.51.319-1.098.479-1.764.479-1.002 0-1.816-.349-2.44-1.046-.62-.697-.93-1.62-.93-2.769v-.089Zm1.272.151c0 .82.189 1.479.567 1.975.383.497.893.745 1.531.745.643 0 1.153-.25 1.532-.751.378-.506.567-1.213.567-2.12 0-.811-.194-1.467-.581-1.968-.383-.506-.893-.759-1.531-.759-.625 0-1.128.248-1.511.745s-.574 1.208-.574 2.133Zm7.584 3.616v-7.396h2.884c.985 0 1.739.173 2.263.519.529.342.793.845.793 1.511 0 .342-.102.651-.307.929-.206.274-.509.484-.91.629.447.105.805.31 1.074.616.273.305.41.67.41 1.093 0 .679-.251 1.199-.752 1.559-.497.36-1.201.54-2.113.54h-3.342Zm1.264-3.247v2.228h2.092c.529 0 .923-.098 1.183-.293.264-.196.396-.472.396-.828 0-.738-.542-1.107-1.627-1.107h-2.044Zm0-1.012h1.634c1.185 0 1.777-.346 1.777-1.039s-.56-1.05-1.681-1.073h-1.73v2.112ZM1.073 241v-7.396h2.885c.984 0 1.739.173 2.263.519.528.342.793.845.793 1.511 0 .342-.103.651-.308.929-.205.274-.508.484-.91.629.447.105.805.31 1.074.616.274.305.41.67.41 1.093 0 .679-.25 1.199-.752 1.559-.496.36-1.2.54-2.112.54H1.073Zm1.265-3.247v2.228H4.43c.528 0 .923-.098 1.182-.293.265-.196.397-.472.397-.828 0-.738-.543-1.107-1.627-1.107H2.338Zm0-1.012h1.634c1.185 0 1.777-.346 1.777-1.039s-.56-1.05-1.682-1.073h-1.73v2.112Zm13.1-3.137V241h-1.27v-6.351H11.65l-.15 2.769c-.082 1.271-.296 2.181-.643 2.728-.341.546-.886.831-1.633.854h-.506v-1.114l.362-.028c.41-.045.704-.282.882-.711.178-.428.292-1.221.342-2.378l.136-3.165h4.998Zm5.52 7.533c-1.002 0-1.818-.328-2.447-.985-.629-.66-.944-1.542-.944-2.645v-.233c0-.733.14-1.387.418-1.962a3.29 3.29 0 0 1 1.175-1.353 2.959 2.959 0 0 1 1.64-.492c.962 0 1.71.317 2.243.95.533.633.8 1.54.8 2.721v.526h-5.01c.017.729.23 1.319.635 1.771.41.446.93.669 1.558.669.447 0 .825-.091 1.135-.273.31-.182.581-.424.814-.725l.772.602c-.62.952-1.55 1.429-2.789 1.429Zm-.157-6.631c-.51 0-.939.187-1.285.56-.347.37-.56.889-.643 1.559h3.705v-.096c-.036-.642-.21-1.139-.52-1.49-.31-.355-.728-.533-1.257-.533ZM31.318 241h-1.272v-2.68a6.7 6.7 0 0 1-1.709.219c-.925 0-1.631-.237-2.119-.711-.483-.474-.73-1.148-.738-2.023v-2.208h1.264v2.249c.023 1.103.554 1.654 1.593 1.654a6.7 6.7 0 0 0 1.71-.219v-3.677h1.27V241Zm5.52.137c-1.003 0-1.82-.328-2.448-.985-.629-.66-.943-1.542-.943-2.645v-.233c0-.733.139-1.387.417-1.962a3.29 3.29 0 0 1 1.175-1.353 2.958 2.958 0 0 1 1.641-.492c.962 0 1.709.317 2.242.95.533.633.8 1.54.8 2.721v.526h-5.01c.017.729.23 1.319.635 1.771.41.446.93.669 1.559.669.446 0 .825-.091 1.134-.273.31-.182.581-.424.814-.725l.772.602c-.62.952-1.55 1.429-2.789 1.429Zm-.158-6.631c-.51 0-.939.187-1.285.56-.347.37-.56.889-.643 1.559h3.705v-.096c-.036-.642-.21-1.139-.52-1.49-.31-.355-.728-.533-1.257-.533Zm10.346.123h-2.482V241H43.28v-6.371h-2.434v-1.025h6.18v1.025Zm9.61.998a.974.974 0 0 0-.396-.82c-.265-.205-.627-.308-1.087-.308-.447 0-.82.116-1.121.349-.296.232-.444.506-.444.82H52.33c0-.643.269-1.169.806-1.579.538-.41 1.21-.615 2.017-.615.866 0 1.54.186 2.023.56.483.369.725.898.725 1.586 0 .333-.1.638-.3.916-.201.278-.486.499-.855.663.861.292 1.292.866 1.292 1.723 0 .679-.262 1.217-.786 1.613-.525.397-1.224.595-2.1.595-.851 0-1.555-.207-2.111-.622-.552-.419-.828-.985-.828-1.696h1.258c0 .361.16.67.479.93.323.255.724.383 1.203.383.483 0 .873-.112 1.169-.335a1.04 1.04 0 0 0 .444-.868c0-.415-.125-.711-.376-.889-.246-.182-.631-.273-1.155-.273H53.97v-1.067h1.374c.862-.022 1.292-.378 1.292-1.066ZM64.665 241c-.073-.146-.133-.406-.178-.779-.588.61-1.29.916-2.105.916-.73 0-1.329-.205-1.798-.616a2.014 2.014 0 0 1-.698-1.572c0-.77.292-1.367.875-1.791.588-.428 1.413-.642 2.475-.642h1.23v-.581c0-.442-.132-.793-.396-1.053-.264-.264-.654-.397-1.169-.397-.451 0-.83.114-1.135.342-.305.228-.458.504-.458.827h-1.271c0-.369.13-.724.39-1.066.264-.346.62-.62 1.066-.82a3.604 3.604 0 0 1 1.483-.301c.852 0 1.52.214 2.003.642.483.424.734 1.01.752 1.757v3.405c0 .679.087 1.219.26 1.62V241h-1.326Zm-2.099-.964c.396 0 .773-.102 1.128-.307.355-.206.613-.472.772-.8v-1.518h-.99c-1.55 0-2.325.454-2.325 1.36 0 .397.132.707.396.93.265.223.604.335 1.02.335Zm12.427.068c.451 0 .845-.136 1.183-.41.337-.273.524-.615.56-1.025h1.196a2.293 2.293 0 0 1-.437 1.21 2.875 2.875 0 0 1-1.08.916c-.447.228-.92.342-1.422.342-1.007 0-1.81-.335-2.406-1.005-.593-.675-.889-1.595-.889-2.762v-.212c0-.72.132-1.36.397-1.921a3.03 3.03 0 0 1 1.134-1.305c.497-.31 1.083-.465 1.757-.465.83 0 1.518.248 2.065.745.551.497.845 1.142.881 1.934h-1.196c-.036-.478-.219-.87-.547-1.175-.323-.31-.724-.465-1.203-.465-.642 0-1.142.232-1.497.697-.35.46-.526 1.128-.526 2.003v.239c0 .853.175 1.509.526 1.969.351.46.852.69 1.504.69Zm4.446-2.871c0-.724.142-1.376.424-1.955.287-.578.684-1.025 1.19-1.34.51-.314 1.091-.471 1.743-.471 1.007 0 1.82.348 2.44 1.046.625.697.937 1.624.937 2.782v.089c0 .72-.14 1.367-.417 1.941a3.112 3.112 0 0 1-1.183 1.333c-.51.319-1.098.479-1.763.479-1.003 0-1.817-.349-2.441-1.046-.62-.697-.93-1.62-.93-2.769v-.089Zm1.272.151c0 .82.189 1.479.567 1.975.383.497.893.745 1.531.745.643 0 1.154-.25 1.532-.751.378-.506.567-1.213.567-2.12 0-.811-.194-1.467-.581-1.968-.383-.506-.893-.759-1.531-.759-.625 0-1.128.248-1.511.745s-.574 1.208-.574 2.133Zm10.715-3.357c.93 0 1.672.313 2.228.937.56.62.841 1.438.841 2.454v.116c0 .697-.134 1.322-.403 1.873a3.013 3.013 0 0 1-1.162 1.279c-.502.3-1.08.451-1.737.451-.993 0-1.793-.331-2.4-.991-.605-.666-.908-1.557-.908-2.673v-.616c0-1.554.287-2.789.861-3.705.579-.916 1.431-1.474 2.557-1.674.638-.114 1.068-.253 1.292-.417a.796.796 0 0 0 .335-.677h1.039c0 .569-.13 1.014-.39 1.333-.255.319-.665.544-1.23.677l-.944.211c-.752.178-1.317.479-1.695.903-.374.419-.618.98-.731 1.681.67-.774 1.485-1.162 2.447-1.162Zm-.246 1.039c-.62 0-1.112.21-1.477.629-.365.415-.547.992-.547 1.73v.109c0 .793.182 1.422.547 1.887.37.46.866.69 1.49.69.63 0 1.126-.232 1.49-.697.365-.465.547-1.144.547-2.037 0-.697-.184-1.256-.553-1.675-.365-.424-.864-.636-1.497-.636Zm4.822 2.167c0-.724.141-1.376.424-1.955.287-.578.683-1.025 1.19-1.34.51-.314 1.09-.471 1.742-.471 1.008 0 1.821.348 2.441 1.046.624.697.936 1.624.936 2.782v.089c0 .72-.139 1.367-.417 1.941a3.109 3.109 0 0 1-1.182 1.333c-.511.319-1.099.479-1.764.479-1.002 0-1.816-.349-2.44-1.046-.62-.697-.93-1.62-.93-2.769v-.089Zm1.272.151c0 .82.189 1.479.567 1.975.383.497.893.745 1.531.745.643 0 1.153-.25 1.531-.751.379-.506.568-1.213.568-2.12 0-.811-.194-1.467-.581-1.968-.383-.506-.894-.759-1.532-.759-.624 0-1.127.248-1.51.745s-.575 1.208-.575 2.133Zm12.252-3.78h1.265V241h-1.265v-5.394L106.115 241h-1.264v-7.396h1.264v5.4l3.411-5.4Zm.342-2.694c0 .552-.189.996-.567 1.333-.374.333-.866.499-1.477.499-.61 0-1.105-.168-1.483-.506-.378-.337-.567-.779-.567-1.326h1.032c0 .319.086.57.26.752.173.178.426.267.758.267.319 0 .568-.089.745-.267.183-.178.274-.428.274-.752h1.025Zm3.401 9.427c0-.219.064-.401.191-.547.132-.146.328-.219.588-.219.26 0 .456.073.588.219a.767.767 0 0 1 .205.547c0 .21-.068.385-.205.526-.132.142-.328.212-.588.212-.26 0-.456-.07-.588-.212a.757.757 0 0 1-.191-.526Z" fill="#757575"/><rect width="270" height="120" rx="4" fill="#F5F4FA"/><g clip-path="url(#a)"><path d="M168.461 58.471c-.003-18.49-14.995-33.475-33.486-33.471-18.489.004-33.475 14.996-33.471 33.486A33.478 33.478 0 0 0 124.8 90.37c.132.042.27.063.408.063.264 0 .522-.071.749-.205.296-.175.516-.453.62-.78l8.455-26.797a4.183 4.183 0 0 0 4.162-4.206 4.184 4.184 0 0 0-4.206-4.164 4.131 4.131 0 0 0-1.794.42L122.025 43.53a1.395 1.395 0 0 0-1.972 1.973l11.163 11.176a4.104 4.104 0 0 0 1.174 5.051l-8.056 25.535c-15.92-5.865-24.072-23.525-18.208-39.445 5.865-15.92 23.524-24.072 39.445-18.207 15.92 5.864 24.072 23.524 18.207 39.444A30.72 30.72 0 0 1 147.455 86.5l-.871-4.1a1.394 1.394 0 0 0-2.293-.752l-8.393 7.494a1.395 1.395 0 0 0 .505 2.372l10.716 3.42a1.394 1.394 0 0 0 1.791-1.619l-.855-4.022a33.37 33.37 0 0 0 20.406-30.82Zm-33.478-1.394a1.395 1.395 0 1 1 0 2.79 1.395 1.395 0 0 1 0-2.79Zm4.594 32.515 4.778-4.262 1.319 6.213-6.097-1.951Z" fill="#212121"/><path d="M133.588 31.967v2.79a1.395 1.395 0 1 0 2.79 0v-2.79a1.395 1.395 0 0 0-2.79 0ZM108.479 57.077a1.395 1.395 0 1 0 0 2.79h2.79a1.395 1.395 0 0 0 0-2.79h-2.79ZM161.487 59.867a1.395 1.395 0 0 0 0-2.79h-2.79a1.395 1.395 0 0 0 0 2.79h2.79Z" fill="#2196F3"/></g><defs><clipPath id="a"><path fill="#fff" transform="translate(100 25)" d="M0 0h70v70H0z"/></clipPath></defs></svg>