<svg width="270" height="251" fill="none" xmlns="http://www.w3.org/2000/svg"><path d="M8.702 159.685c-.077 1.071-.474 1.914-1.19 2.529-.71.615-1.649.923-2.816.923-1.276 0-2.28-.429-3.014-1.285-.73-.862-1.094-2.042-1.094-3.541v-.609c0-.957.169-1.8.506-2.529.337-.729.818-1.288 1.442-1.675.629-.392 1.358-.588 2.188-.588 1.148 0 2.073.308 2.775.923s1.107 1.479 1.217 2.591H6.665c-.05-.643-.23-1.108-.54-1.395-.305-.291-.772-.437-1.401-.437-.684 0-1.197.246-1.538.738-.338.488-.51 1.246-.52 2.276v.752c0 1.076.162 1.862.485 2.359.328.497.843.745 1.545.745.634 0 1.105-.144 1.415-.431.315-.291.495-.74.54-1.346h2.051Zm9.943-1.436c0 .98-.174 1.839-.52 2.577-.346.738-.843 1.308-1.49 1.709-.643.401-1.381.602-2.215.602-.825 0-1.56-.199-2.208-.595-.647-.396-1.148-.962-1.504-1.695-.355-.739-.535-1.586-.54-2.543v-.492c0-.98.176-1.842.526-2.584.356-.748.855-1.32 1.497-1.716.648-.401 1.386-.602 2.215-.602.83 0 1.566.201 2.208.602.648.396 1.146.968 1.497 1.716.356.742.534 1.601.534 2.577v.444Zm-2.078-.451c0-1.044-.187-1.837-.561-2.379-.374-.542-.907-.814-1.6-.814-.688 0-1.219.269-1.592.807-.374.533-.563 1.317-.568 2.352v.485c0 1.016.187 1.805.56 2.365.374.561.912.841 1.614.841.688 0 1.217-.269 1.586-.807.37-.542.556-1.33.56-2.365v-.485ZM20.555 163v-9.953h3.486c1.208 0 2.124.232 2.748.697.625.46.937 1.137.937 2.03 0 .488-.126.919-.376 1.292-.25.37-.6.641-1.046.814.51.127.911.385 1.203.772.296.388.444.862.444 1.422 0 .957-.305 1.682-.916 2.174-.61.492-1.48.743-2.611.752h-3.87Zm2.05-4.334v2.687h1.758c.483 0 .858-.114 1.127-.342.274-.233.41-.552.41-.957 0-.912-.471-1.374-1.415-1.388h-1.88Zm0-1.449h1.518c1.035-.018 1.552-.431 1.552-1.238 0-.451-.132-.774-.396-.97-.26-.201-.673-.301-1.238-.301h-1.435v2.509Zm9.362 2.276V163h-2.05v-9.953h3.882c.748 0 1.404.137 1.969.41.57.273 1.007.663 1.312 1.169.306.501.458 1.073.458 1.716 0 .975-.335 1.745-1.005 2.31-.665.561-1.588.841-2.768.841h-1.798Zm0-1.661h1.832c.542 0 .955-.128 1.237-.383.288-.255.431-.62.431-1.094 0-.487-.143-.881-.43-1.182-.288-.301-.684-.456-1.19-.465h-1.88v3.124Zm13.395.855h-3.938v2.666h4.621V163h-6.672v-9.953h6.659v1.661h-4.608v2.372h3.938v1.607Zm4.986-5.64 2.557 7.219 2.543-7.219h2.693V163h-2.058v-2.721l.206-4.696L53.602 163h-1.408l-2.68-7.41.205 4.689V163h-2.05v-9.953h2.679Zm15.992 5.64h-3.937v2.666h4.62V163h-6.671v-9.953h6.658v1.661h-4.607v2.372h3.937v1.607ZM76.748 163h-2.051v-4.266h-4V163h-2.05v-9.953h2.05v4.033h4v-4.033h2.05V163Zm10.318 0h-2.05v-4.266h-4V163h-2.05v-9.953h2.05v4.033h4v-4.033h2.05V163Zm4.303-6.364h1.6c1.17 0 2.098.285 2.782.854.688.565 1.032 1.329 1.032 2.29 0 .966-.342 1.743-1.026 2.331-.678.584-1.583.88-2.713.889h-3.74v-9.953h2.065v3.589Zm8.32 6.364h-2.052v-9.953h2.051V163Zm-8.32-4.71v3.063h1.634c.524 0 .94-.144 1.25-.431.315-.287.472-.672.472-1.155 0-.452-.15-.807-.45-1.067-.297-.264-.705-.401-1.225-.41H91.37Zm16.532.397h-3.937v2.666h4.621V163h-6.672v-9.953h6.658v1.661h-4.607v2.372h3.937v1.607Zm13.295-3.979h-3.049V163h-2.05v-8.292h-3.008v-1.661h8.107v1.661Zm7.584 3.979h-3.937v2.666h4.621V163h-6.672v-9.953h6.658v1.661h-4.607v2.372h3.937v1.607Zm5.869-2.208 1.866-3.432h2.358l-2.898 4.935 2.973 5.018h-2.385l-1.914-3.486-1.915 3.486h-2.385l2.973-5.018-2.898-4.935h2.358l1.867 3.432ZM148.508 163h-2.051v-4.266h-3.999V163h-2.051v-9.953h2.051v4.033h3.999v-4.033h2.051V163Zm10.394-4.751c0 .98-.174 1.839-.52 2.577-.346.738-.843 1.308-1.49 1.709-.643.401-1.381.602-2.215.602-.825 0-1.561-.199-2.208-.595-.647-.396-1.148-.962-1.504-1.695-.355-.739-.535-1.586-.54-2.543v-.492c0-.98.176-1.842.526-2.584.356-.748.855-1.32 1.498-1.716.647-.401 1.385-.602 2.214-.602.83 0 1.566.201 2.208.602.648.396 1.147.968 1.497 1.716.356.742.534 1.601.534 2.577v.444Zm-2.078-.451c0-1.044-.187-1.837-.561-2.379-.374-.542-.907-.814-1.6-.814-.688 0-1.219.269-1.592.807-.374.533-.563 1.317-.568 2.352v.485c0 1.016.187 1.805.561 2.365.373.561.911.841 1.613.841.688 0 1.217-.269 1.586-.807.369-.542.556-1.33.561-2.365v-.485Zm11.863-4.751V163h-2.058v-8.292h-2.652l-.164 3.514c-.069 1.185-.219 2.119-.451 2.802-.233.679-.572 1.178-1.019 1.497-.446.315-1.057.474-1.832.479h-.533v-1.647l.342-.035c.515-.068.882-.364 1.1-.888.224-.529.365-1.468.424-2.817l.171-4.566h6.672Zm10.387 5.202c0 .98-.174 1.839-.52 2.577-.346.738-.843 1.308-1.49 1.709-.643.401-1.381.602-2.215.602-.825 0-1.561-.199-2.208-.595-.647-.396-1.148-.962-1.504-1.695-.355-.739-.535-1.586-.54-2.543v-.492c0-.98.176-1.842.526-2.584.356-.748.855-1.32 1.498-1.716.647-.401 1.385-.602 2.214-.602.83 0 1.566.201 2.208.602.648.396 1.147.968 1.497 1.716.356.742.534 1.601.534 2.577v.444Zm-2.078-.451c0-1.044-.187-1.837-.561-2.379-.374-.542-.907-.814-1.6-.814-.688 0-1.219.269-1.592.807-.374.533-.563 1.317-.568 2.352v.485c0 1.016.187 1.805.561 2.365.373.561.911.841 1.613.841.688 0 1.217-.269 1.586-.807.369-.542.556-1.33.561-2.365v-.485Zm10.516-3.09h-4.464V163h-2.05v-9.953h6.514v1.661Zm7.666-1.661h2.058V163h-2.058v-6.61l-3.985 6.61h-2.051v-9.953h2.051v6.624l3.985-6.624Zm10.223 0h2.058V163h-2.058v-6.61l-3.985 6.61h-2.051v-9.953h2.051v6.624l3.985-6.624Z" fill="#212121"/><path d="M6.262 185.72c0-.529-.194-.948-.581-1.258-.383-.315-.923-.472-1.62-.472-.584 0-1.074.162-1.47.486-.392.319-.588.715-.588 1.189H.69c0-.529.144-1.003.431-1.422.292-.419.697-.745 1.217-.977a4.102 4.102 0 0 1 1.723-.356c1.112 0 1.975.251 2.59.752.616.497.923 1.19.923 2.078 0 .461-.141.88-.424 1.258-.282.378-.676.677-1.182.896 1.171.391 1.757 1.168 1.757 2.331 0 .893-.333 1.601-.998 2.126-.666.524-1.554.786-2.666.786-.661 0-1.263-.116-1.805-.349-.538-.237-.957-.572-1.258-1.005-.3-.433-.451-.948-.451-1.545h1.312c0 .524.208.962.622 1.313.415.346.942.519 1.58.519.715 0 1.285-.166 1.709-.499.428-.332.642-.772.642-1.319 0-1.167-.722-1.761-2.167-1.784h-1.23v-1.08h1.223c.666-.014 1.17-.164 1.511-.451.342-.288.513-.693.513-1.217Zm9.47 7.28h-1.264v-3.158H11.07V193H9.8v-7.396h1.271v3.206h3.398v-3.206h1.264V193Zm7.024 0c-.073-.146-.132-.406-.178-.779-.588.61-1.29.916-2.105.916-.73 0-1.329-.205-1.798-.616a2.014 2.014 0 0 1-.697-1.572c0-.77.291-1.367.875-1.791.588-.428 1.412-.642 2.474-.642h1.23v-.581c0-.442-.131-.793-.396-1.053-.264-.264-.654-.397-1.169-.397-.45 0-.83.114-1.134.342-.306.228-.458.504-.458.827h-1.272c0-.369.13-.724.39-1.066a2.7 2.7 0 0 1 1.066-.82 3.604 3.604 0 0 1 1.483-.301c.853 0 1.52.214 2.003.642.483.424.734 1.01.752 1.757v3.405c0 .679.087 1.219.26 1.62V193h-1.326Zm-2.099-.964c.397 0 .773-.102 1.128-.307.356-.206.613-.472.773-.8v-1.518h-.991c-1.55 0-2.325.454-2.325 1.36 0 .397.133.707.397.93.264.223.604.335 1.018.335ZM31.81 193h-1.272v-2.68a6.7 6.7 0 0 1-1.709.219c-.925 0-1.631-.237-2.119-.711-.483-.474-.729-1.148-.738-2.023v-2.208h1.265v2.249c.022 1.103.553 1.654 1.592 1.654a6.7 6.7 0 0 0 1.71-.219v-3.677h1.27V193Zm7.235-7.396h1.265V193h-1.265v-5.394L35.635 193H34.37v-7.396h1.264v5.4l3.411-5.4Zm7.974 5.721 2.516-5.721h1.579V193h-1.265v-5.38L47.456 193h-.875l-2.44-5.496V193h-1.265v-7.396h1.641l2.502 5.721Zm6.217-2.092c0-.724.141-1.376.424-1.955.287-.578.683-1.025 1.19-1.34.51-.314 1.09-.471 1.742-.471 1.007 0 1.82.348 2.44 1.046.625.697.937 1.624.937 2.782v.089c0 .72-.139 1.367-.417 1.941a3.112 3.112 0 0 1-1.182 1.333c-.51.319-1.099.479-1.764.479-1.003 0-1.816-.349-2.44-1.046-.62-.697-.93-1.62-.93-2.769v-.089Zm1.271.151c0 .82.19 1.479.568 1.975.383.497.893.745 1.53.745.644 0 1.154-.25 1.532-.751.378-.506.568-1.213.568-2.12 0-.811-.194-1.467-.581-1.968-.383-.506-.894-.759-1.532-.759-.624 0-1.128.248-1.51.745-.383.497-.575 1.208-.575 2.133Zm10.435 2.72c.451 0 .845-.136 1.183-.41.337-.273.524-.615.56-1.025h1.196a2.293 2.293 0 0 1-.437 1.21 2.875 2.875 0 0 1-1.08.916c-.447.228-.92.342-1.422.342-1.007 0-1.81-.335-2.406-1.005-.593-.675-.889-1.595-.889-2.762v-.212c0-.72.132-1.36.397-1.921a3.03 3.03 0 0 1 1.134-1.305c.497-.31 1.083-.465 1.757-.465.83 0 1.518.248 2.065.745.551.497.845 1.142.881 1.934h-1.196c-.036-.478-.219-.87-.547-1.175-.323-.31-.724-.465-1.203-.465-.642 0-1.142.232-1.497.697-.35.46-.526 1.128-.526 2.003v.239c0 .853.175 1.509.526 1.969.351.46.852.69 1.504.69Zm10.277-5.475h-2.481V193h-1.265v-6.371H69.04v-1.025h6.18v1.025Zm3.032 1.524h1.92c.84.009 1.502.228 1.99.657.487.428.731 1.009.731 1.743 0 .738-.25 1.33-.752 1.777-.501.447-1.175.67-2.023.67h-3.13v-7.396h1.264v2.549Zm0 1.033v2.782h1.88c.474 0 .84-.121 1.1-.363.26-.246.39-.581.39-1.004 0-.411-.128-.746-.383-1.005-.25-.265-.604-.401-1.06-.41h-1.927Zm13.13-2.68c-.45 0-.842.143-1.175.431-.328.287-.492.626-.492 1.018H88.51c0-.424.134-.829.403-1.217a2.869 2.869 0 0 1 1.073-.923 2.987 2.987 0 0 1 1.395-.348c.961 0 1.738.348 2.33 1.046.598.692.896 1.599.896 2.72v.212c0 .693-.136 1.326-.41 1.901a3.108 3.108 0 0 1-1.141 1.326c-.488.31-1.046.465-1.675.465-.82 0-1.504-.255-2.051-.766-.547-.51-.82-1.146-.82-1.907h1.203c0 .465.162.857.485 1.176.324.314.718.471 1.183.471.542 0 .989-.209 1.34-.629.35-.419.553-.995.608-1.729h-2.775v-1.039h2.761c-.064-.665-.266-1.199-.608-1.6a1.655 1.655 0 0 0-1.326-.608Zm10.305.123h-2.481V193H97.94v-6.371h-2.433v-1.025h6.179v1.025Zm6.436-1.025h1.265V193h-1.265v-5.394L104.711 193h-1.265v-7.396h1.265v5.4l3.411-5.4Zm6.196 2.7 1.641-2.7h1.477l-2.42 3.657 2.495 3.739h-1.463l-1.709-2.769L112.63 193h-1.47l2.495-3.739-2.42-3.657h1.463l1.62 2.7ZM129.145 193h-1.265v-6.351h-3.404V193h-1.272v-7.396h5.941V193Zm8.698-3.616c0 1.125-.257 2.032-.772 2.72-.515.689-1.213 1.033-2.092 1.033-.898 0-1.604-.285-2.119-.855v3.562h-1.265v-10.24h1.155l.062.82c.515-.638 1.23-.957 2.146-.957.889 0 1.591.335 2.106 1.005.519.67.779 1.602.779 2.796v.116Zm-1.265-.144c0-.834-.177-1.492-.533-1.975-.355-.483-.843-.725-1.463-.725-.765 0-1.339.34-1.722 1.019v3.534c.378.674.957 1.011 1.736 1.011.606 0 1.087-.239 1.442-.717.36-.483.54-1.199.54-2.147Zm2.963-.007c0-.724.142-1.376.424-1.955a3.226 3.226 0 0 1 1.19-1.34c.51-.314 1.091-.471 1.743-.471 1.007 0 1.821.348 2.44 1.046.625.697.937 1.624.937 2.782v.089c0 .72-.139 1.367-.417 1.941a3.117 3.117 0 0 1-1.183 1.333c-.51.319-1.098.479-1.763.479-1.003 0-1.817-.349-2.441-1.046-.62-.697-.93-1.62-.93-2.769v-.089Zm1.272.151c0 .82.189 1.479.567 1.975.383.497.894.745 1.532.745.642 0 1.153-.25 1.531-.751.378-.506.567-1.213.567-2.12 0-.811-.193-1.467-.581-1.968-.383-.506-.893-.759-1.531-.759-.624 0-1.128.248-1.511.745s-.574 1.208-.574 2.133Zm10.715-3.357c.93 0 1.672.313 2.228.937.561.62.841 1.438.841 2.454v.116c0 .697-.134 1.322-.403 1.873a3.013 3.013 0 0 1-1.162 1.279c-.502.3-1.08.451-1.737.451-.993 0-1.793-.331-2.399-.991-.606-.666-.909-1.557-.909-2.673v-.616c0-1.554.287-2.789.861-3.705.579-.916 1.431-1.474 2.557-1.674.638-.114 1.068-.253 1.292-.417a.796.796 0 0 0 .335-.677h1.039c0 .569-.13 1.014-.39 1.333-.255.319-.665.544-1.23.677l-.944.211c-.752.178-1.317.479-1.695.903-.374.419-.617.98-.731 1.681.67-.774 1.485-1.162 2.447-1.162Zm-.246 1.039c-.62 0-1.112.21-1.477.629-.364.415-.547.992-.547 1.73v.109c0 .793.183 1.422.547 1.887.369.46.866.69 1.49.69.629 0 1.126-.232 1.491-.697.364-.465.547-1.144.547-2.037 0-.697-.185-1.256-.554-1.675-.365-.424-.864-.636-1.497-.636Zm11.221-1.462V193h-1.272v-6.351h-2.516l-.15 2.769c-.082 1.271-.296 2.181-.643 2.728-.341.546-.886.831-1.633.854h-.506v-1.114l.362-.028c.41-.045.704-.282.882-.711.178-.428.292-1.221.342-2.378l.136-3.165h4.998Zm5.519 7.533c-1.002 0-1.818-.328-2.447-.985-.629-.66-.943-1.542-.943-2.645v-.233c0-.733.139-1.387.417-1.962a3.286 3.286 0 0 1 1.175-1.353 2.96 2.96 0 0 1 1.641-.492c.962 0 1.709.317 2.242.95.533.633.8 1.54.8 2.721v.526h-5.011c.018.729.23 1.319.636 1.771.41.446.93.669 1.559.669.446 0 .824-.091 1.134-.273.31-.182.581-.424.814-.725l.772.602c-.62.952-1.549 1.429-2.789 1.429Zm-.157-6.631c-.51 0-.939.187-1.285.56-.347.37-.561.889-.643 1.559h3.705v-.096c-.036-.642-.209-1.139-.519-1.49-.31-.355-.729-.533-1.258-.533Zm9.19 4.819 2.516-5.721h1.579V193h-1.264v-5.38l-2.393 5.38h-.875l-2.44-5.496V193h-1.265v-7.396h1.64l2.502 5.721ZM193.543 193h-1.265v-3.158h-3.397V193h-1.272v-7.396h1.272v3.206h3.397v-3.206h1.265V193Zm7.023 0c-.073-.146-.132-.406-.177-.779-.588.61-1.29.916-2.106.916-.729 0-1.328-.205-1.798-.616a2.016 2.016 0 0 1-.697-1.572c0-.77.292-1.367.875-1.791.588-.428 1.413-.642 2.475-.642h1.23v-.581c0-.442-.132-.793-.396-1.053-.265-.264-.654-.397-1.169-.397-.451 0-.83.114-1.135.342-.305.228-.458.504-.458.827h-1.272c0-.369.13-.724.39-1.066.264-.346.62-.62 1.067-.82a3.6 3.6 0 0 1 1.483-.301c.852 0 1.52.214 2.003.642.483.424.734 1.01.752 1.757v3.405c0 .679.086 1.219.26 1.62V193h-1.327Zm-2.098-.964c.396 0 .772-.102 1.128-.307.355-.206.613-.472.772-.8v-1.518h-.991c-1.55 0-2.324.454-2.324 1.36 0 .397.132.707.396.93.265.223.604.335 1.019.335Zm8.534.068c.451 0 .845-.136 1.183-.41a1.44 1.44 0 0 0 .56-1.025h1.196a2.285 2.285 0 0 1-.437 1.21 2.876 2.876 0 0 1-1.08.916 3.087 3.087 0 0 1-1.422.342c-1.007 0-1.809-.335-2.406-1.005-.593-.675-.889-1.595-.889-2.762v-.212c0-.72.132-1.36.397-1.921.264-.56.642-.995 1.134-1.305.497-.31 1.083-.465 1.757-.465.83 0 1.518.248 2.065.745.551.497.845 1.142.881 1.934h-1.196c-.036-.478-.219-.87-.547-1.175-.323-.31-.724-.465-1.203-.465-.642 0-1.141.232-1.497.697-.351.46-.526 1.128-.526 2.003v.239c0 .853.175 1.509.526 1.969.351.46.852.69 1.504.69Zm10.277-5.475h-2.481V193h-1.265v-6.371H211.1v-1.025h6.179v1.025Zm1.029 2.604c0-.724.141-1.376.424-1.955.287-.578.683-1.025 1.189-1.34.511-.314 1.092-.471 1.743-.471 1.007 0 1.821.348 2.441 1.046.624.697.936 1.624.936 2.782v.089c0 .72-.139 1.367-.417 1.941a3.109 3.109 0 0 1-1.182 1.333c-.511.319-1.099.479-1.764.479-1.003 0-1.816-.349-2.44-1.046-.62-.697-.93-1.62-.93-2.769v-.089Zm1.271.151c0 .82.189 1.479.568 1.975.383.497.893.745 1.531.745.643 0 1.153-.25 1.531-.751.378-.506.568-1.213.568-2.12 0-.811-.194-1.467-.581-1.968-.383-.506-.894-.759-1.532-.759-.624 0-1.128.248-1.51.745-.383.497-.575 1.208-.575 2.133Zm13.422-3.78V193h-1.271v-6.351h-2.516l-.15 2.769c-.082 1.271-.296 2.181-.643 2.728-.342.546-.886.831-1.634.854h-.505v-1.114l.362-.028c.41-.045.704-.282.882-.711.177-.428.291-1.221.341-2.378l.137-3.165h4.997Zm3.831 2.549h1.921c.839.009 1.502.228 1.99.657.487.428.731 1.009.731 1.743 0 .738-.251 1.33-.752 1.777-.501.447-1.176.67-2.023.67h-3.131v-7.396h1.264v2.549Zm0 1.033v2.782h1.88c.474 0 .841-.121 1.101-.363.26-.246.39-.581.39-1.004 0-.411-.128-.746-.383-1.005-.251-.265-.604-.401-1.06-.41h-1.928Zm8.945.663h-.923V193h-1.271v-7.396h1.271v3.13h.827l2.488-3.13h1.532l-2.926 3.554 3.172 3.842h-1.607l-2.563-3.151Zm5.191-.616c0-.724.142-1.376.424-1.955a3.226 3.226 0 0 1 1.19-1.34c.51-.314 1.091-.471 1.743-.471 1.007 0 1.82.348 2.44 1.046.625.697.937 1.624.937 2.782v.089c0 .72-.139 1.367-.417 1.941a3.117 3.117 0 0 1-1.183 1.333c-.51.319-1.098.479-1.764.479-1.002 0-1.816-.349-2.44-1.046-.62-.697-.93-1.62-.93-2.769v-.089Zm1.272.151c0 .82.189 1.479.567 1.975.383.497.893.745 1.531.745.643 0 1.153-.25 1.532-.751.378-.506.567-1.213.567-2.12 0-.811-.194-1.467-.581-1.968-.383-.506-.893-.759-1.531-.759-.625 0-1.128.248-1.511.745s-.574 1.208-.574 2.133ZM.622 213.233c0-.724.141-1.376.424-1.955.287-.578.683-1.025 1.19-1.34.51-.314 1.09-.471 1.743-.471 1.007 0 1.82.348 2.44 1.046.624.697.936 1.624.936 2.782v.089c0 .72-.139 1.367-.417 1.941a3.113 3.113 0 0 1-1.182 1.333c-.51.319-1.098.479-1.764.479-1.002 0-1.816-.349-2.44-1.046-.62-.697-.93-1.62-.93-2.769v-.089Zm1.272.151c0 .82.189 1.479.567 1.975.383.497.893.745 1.531.745.643 0 1.153-.25 1.531-.751.379-.506.568-1.213.568-2.12 0-.811-.194-1.467-.581-1.968-.383-.506-.893-.759-1.531-.759-.625 0-1.128.248-1.511.745s-.574 1.208-.574 2.133ZM14.946 217h-1.271v-2.68a6.701 6.701 0 0 1-1.71.219c-.924 0-1.63-.237-2.118-.711-.483-.474-.73-1.148-.739-2.023v-2.208h1.265v2.249c.023 1.103.554 1.654 1.593 1.654.583 0 1.153-.073 1.709-.219v-3.677h1.271V217Zm5.52.137c-1.003 0-1.818-.328-2.447-.985-.63-.66-.944-1.542-.944-2.645v-.233c0-.733.14-1.387.417-1.962a3.29 3.29 0 0 1 1.176-1.353 2.959 2.959 0 0 1 1.64-.492c.962 0 1.71.317 2.243.95.533.633.8 1.54.8 2.721v.526H18.34c.018.729.23 1.319.636 1.771.41.446.93.669 1.558.669.447 0 .825-.091 1.135-.273.31-.182.581-.424.814-.725l.772.602c-.62.952-1.55 1.429-2.789 1.429Zm-.157-6.631c-.51 0-.94.187-1.285.56-.347.37-.561.889-.643 1.559h3.705v-.096c-.036-.642-.21-1.139-.52-1.49-.31-.355-.729-.533-1.257-.533ZM25.357 217v-7.396h2.884c.985 0 1.74.173 2.263.519.529.342.793.845.793 1.511 0 .342-.102.651-.308.929-.205.274-.508.484-.909.629.447.105.805.31 1.074.616.273.305.41.67.41 1.093 0 .679-.25 1.199-.752 1.559-.497.36-1.201.54-2.113.54h-3.342Zm1.264-3.247v2.228h2.092c.529 0 .923-.098 1.183-.293.264-.196.396-.472.396-.828 0-.738-.542-1.107-1.627-1.107h-2.044Zm0-1.012h1.634c1.185 0 1.777-.346 1.777-1.039s-.56-1.05-1.681-1.073h-1.73v2.112Zm11.823-3.137h1.264V217h-1.264v-5.394L35.032 217h-1.264v-7.396h1.264v5.4l3.412-5.4Zm3.653 6.364.438-.54c.492-.638.772-1.595.84-2.871l.117-2.953h4.764v6.364h.95v3.206h-1.264V217H42.78v2.174h-1.265l.007-3.206h.574Zm1.497 0h3.398v-5.196h-2.277l-.075 1.764c-.077 1.472-.426 2.616-1.046 3.432ZM57.071 217h-1.265v-3.158H52.41V217h-1.272v-7.396h1.272v3.206h3.397v-3.206h1.265V217Zm7.023 0c-.073-.146-.132-.406-.177-.779-.588.61-1.29.916-2.106.916-.73 0-1.328-.205-1.798-.616a2.014 2.014 0 0 1-.697-1.572c0-.77.292-1.367.875-1.791.588-.428 1.413-.642 2.475-.642h1.23v-.581c0-.442-.132-.793-.396-1.053-.265-.264-.654-.397-1.17-.397-.45 0-.829.114-1.134.342-.305.228-.458.504-.458.827h-1.272c0-.369.13-.724.39-1.066.264-.346.62-.62 1.066-.82a3.604 3.604 0 0 1 1.484-.301c.852 0 1.52.214 2.003.642.483.424.733 1.01.752 1.757v3.405c0 .679.086 1.219.26 1.62V217h-1.327Zm-2.098-.964c.396 0 .772-.102 1.128-.307.355-.206.612-.472.772-.8v-1.518h-.991c-1.55 0-2.324.454-2.324 1.36 0 .397.132.707.396.93.264.223.604.335 1.019.335Zm5.526 2.946-.718-.492c.429-.597.652-1.212.67-1.845v-1.142h1.238v.991c0 .46-.114.921-.342 1.381-.224.46-.506.829-.848 1.107ZM80.21 217h-1.272v-2.68a6.7 6.7 0 0 1-1.709.219c-.925 0-1.631-.237-2.119-.711-.483-.474-.729-1.148-.738-2.023v-2.208h1.264v2.249c.023 1.103.554 1.654 1.593 1.654a6.7 6.7 0 0 0 1.71-.219v-3.677h1.27V217Zm7.946-6.371h-2.481V217h-1.265v-6.371h-2.434v-1.025h6.18v1.025Zm1.029 2.604c0-.724.14-1.376.423-1.955.287-.578.684-1.025 1.19-1.34.51-.314 1.091-.471 1.743-.471 1.007 0 1.82.348 2.44 1.046.625.697.937 1.624.937 2.782v.089c0 .72-.139 1.367-.417 1.941a3.113 3.113 0 0 1-1.183 1.333c-.51.319-1.098.479-1.763.479-1.003 0-1.816-.349-2.44-1.046-.62-.697-.93-1.62-.93-2.769v-.089Zm1.271.151c0 .82.19 1.479.567 1.975.383.497.894.745 1.532.745.642 0 1.153-.25 1.53-.751.38-.506.568-1.213.568-2.12 0-.811-.193-1.467-.58-1.968-.384-.506-.894-.759-1.532-.759-.624 0-1.128.248-1.51.745-.384.497-.575 1.208-.575 2.133Zm17.609 0c0 1.125-.258 2.032-.773 2.72-.515.689-1.212 1.033-2.092 1.033-.897 0-1.604-.285-2.119-.855v3.562h-1.264v-10.24h1.155l.061.82c.515-.638 1.231-.957 2.147-.957.888 0 1.59.335 2.105 1.005.52.67.78 1.602.78 2.796v.116Zm-1.265-.144c0-.834-.178-1.492-.533-1.975-.356-.483-.843-.725-1.463-.725-.766 0-1.34.34-1.723 1.019v3.534c.378.674.957 1.011 1.737 1.011.606 0 1.086-.239 1.442-.717.36-.483.54-1.199.54-2.147Zm6.367 3.897c-1.002 0-1.818-.328-2.447-.985-.629-.66-.943-1.542-.943-2.645v-.233c0-.733.139-1.387.417-1.962a3.286 3.286 0 0 1 1.175-1.353 2.96 2.96 0 0 1 1.641-.492c.962 0 1.709.317 2.242.95.533.633.8 1.54.8 2.721v.526h-5.011c.018.729.23 1.319.636 1.771.41.446.93.669 1.559.669.446 0 .824-.091 1.134-.273.31-.182.581-.424.814-.725l.772.602c-.62.952-1.549 1.429-2.789 1.429Zm-.157-6.631c-.51 0-.939.187-1.285.56-.347.37-.561.889-.643 1.559h3.705v-.096c-.036-.642-.209-1.139-.519-1.49-.31-.355-.729-.533-1.258-.533Zm9.498 6.494c-.073-.146-.132-.406-.178-.779-.588.61-1.289.916-2.105.916-.729 0-1.329-.205-1.798-.616-.465-.414-.697-.938-.697-1.572 0-.77.291-1.367.875-1.791.588-.428 1.413-.642 2.474-.642h1.231v-.581c0-.442-.132-.793-.397-1.053-.264-.264-.654-.397-1.169-.397-.451 0-.829.114-1.134.342-.306.228-.458.504-.458.827h-1.272c0-.369.13-.724.39-1.066a2.7 2.7 0 0 1 1.066-.82 3.605 3.605 0 0 1 1.484-.301c.852 0 1.519.214 2.003.642.483.424.733 1.01.752 1.757v3.405c0 .679.086 1.219.259 1.62V217h-1.326Zm-2.099-.964a2.22 2.22 0 0 0 1.128-.307c.356-.206.613-.472.773-.8v-1.518h-.991c-1.55 0-2.325.454-2.325 1.36 0 .397.133.707.397.93.264.223.604.335 1.018.335Zm11.631-6.432V217h-1.271v-6.351h-2.516l-.15 2.769c-.082 1.271-.296 2.181-.643 2.728-.341.546-.886.831-1.633.854h-.506v-1.114l.362-.028c.41-.045.704-.282.882-.711.178-.428.291-1.221.342-2.378l.136-3.165h4.997Zm7.236 0h1.264V217h-1.264v-5.394L135.864 217h-1.265v-7.396h1.265v5.4l3.411-5.4Zm7.782 2.023a.974.974 0 0 0-.396-.82c-.265-.205-.627-.308-1.087-.308-.447 0-.821.116-1.121.349-.297.232-.445.506-.445.82h-1.257c0-.643.268-1.169.806-1.579.538-.41 1.21-.615 2.017-.615.866 0 1.54.186 2.023.56.483.369.725.898.725 1.586 0 .333-.1.638-.301.916-.201.278-.485.499-.854.663.861.292 1.292.866 1.292 1.723 0 .679-.263 1.217-.787 1.613-.524.397-1.223.595-2.098.595-.852 0-1.557-.207-2.113-.622-.551-.419-.827-.985-.827-1.696h1.258c0 .361.16.67.479.93.323.255.724.383 1.203.383.483 0 .872-.112 1.169-.335a1.04 1.04 0 0 0 .444-.868c0-.415-.125-.711-.376-.889-.246-.182-.631-.273-1.155-.273h-1.265v-1.067h1.374c.861-.022 1.292-.378 1.292-1.066Zm8.029 5.373c-.073-.146-.133-.406-.178-.779-.588.61-1.29.916-2.106.916-.729 0-1.328-.205-1.798-.616a2.016 2.016 0 0 1-.697-1.572c0-.77.292-1.367.875-1.791.588-.428 1.413-.642 2.475-.642h1.23v-.581c0-.442-.132-.793-.396-1.053-.265-.264-.654-.397-1.169-.397-.451 0-.83.114-1.135.342-.305.228-.458.504-.458.827h-1.271c0-.369.129-.724.389-1.066.265-.346.62-.62 1.067-.82a3.6 3.6 0 0 1 1.483-.301c.852 0 1.52.214 2.003.642.483.424.734 1.01.752 1.757v3.405c0 .679.087 1.219.26 1.62V217h-1.326Zm-2.099-.964c.396 0 .772-.102 1.128-.307.355-.206.613-.472.772-.8v-1.518h-.991c-1.549 0-2.324.454-2.324 1.36 0 .397.132.707.396.93.265.223.604.335 1.019.335Zm5.677-6.432h1.271v6.364h3.405v-6.364h1.264v6.364h.882l-.123 3.226h-1.135V217h-5.564v-7.396Zm13.394 0h1.265V217h-1.265v-5.394L168.647 217h-1.264v-7.396h1.264v5.4l3.411-5.4Zm9.369 0V217h-1.272v-2.878h-1.907L176.505 217h-1.367l1.859-3.069c-.474-.174-.839-.44-1.094-.8a2.197 2.197 0 0 1-.376-1.272c0-.674.253-1.216.759-1.627.506-.414 1.183-.624 2.03-.628h3.111Zm-4.628 2.269c0 .36.123.652.369.875.246.219.572.33.977.335h2.01v-2.454h-1.818c-.47 0-.843.116-1.121.349a1.1 1.1 0 0 0-.417.895Zm17.02 5.127h-1.264v-6.351h-3.405V217h-1.271v-7.396h5.94V217Zm8.514-7.396V217h-1.271v-6.351h-2.516l-.15 2.769c-.082 1.271-.297 2.181-.643 2.728-.342.546-.886.831-1.634.854h-.506v-1.114l.363-.028c.41-.045.704-.282.881-.711.178-.428.292-1.221.342-2.378l.137-3.165h4.997ZM209.35 217c-.073-.146-.132-.406-.178-.779-.588.61-1.29.916-2.105.916-.73 0-1.329-.205-1.798-.616a2.014 2.014 0 0 1-.698-1.572c0-.77.292-1.367.875-1.791.588-.428 1.413-.642 2.475-.642h1.231v-.581c0-.442-.133-.793-.397-1.053-.264-.264-.654-.397-1.169-.397-.451 0-.829.114-1.135.342-.305.228-.458.504-.458.827h-1.271c0-.369.13-.724.389-1.066.265-.346.62-.62 1.067-.82a3.604 3.604 0 0 1 1.483-.301c.852 0 1.52.214 2.003.642.483.424.734 1.01.752 1.757v3.405c0 .679.087 1.219.26 1.62V217h-1.326Zm-2.099-.964a2.22 2.22 0 0 0 1.128-.307c.356-.206.613-.472.773-.8v-1.518h-.992c-1.549 0-2.324.454-2.324 1.36 0 .397.132.707.397.93.264.223.603.335 1.018.335Zm11.611.964h-1.265v-3.158h-3.398V217h-1.271v-7.396h1.271v3.206h3.398v-3.206h1.265V217Zm2.122-3.767c0-.724.141-1.376.424-1.955.287-.578.683-1.025 1.189-1.34.51-.314 1.091-.471 1.743-.471 1.007 0 1.821.348 2.441 1.046.624.697.936 1.624.936 2.782v.089c0 .72-.139 1.367-.417 1.941a3.11 3.11 0 0 1-1.183 1.333c-.51.319-1.098.479-1.763.479-1.003 0-1.816-.349-2.441-1.046-.619-.697-.929-1.62-.929-2.769v-.089Zm1.271.151c0 .82.189 1.479.568 1.975.382.497.893.745 1.531.745.642 0 1.153-.25 1.531-.751.378-.506.567-1.213.567-2.12 0-.811-.193-1.467-.581-1.968-.382-.506-.893-.759-1.531-.759-.624 0-1.128.248-1.511.745-.382.497-.574 1.208-.574 2.133Zm7.584 3.616v-7.396h2.885c.984 0 1.739.173 2.263.519.528.342.793.845.793 1.511 0 .342-.103.651-.308.929-.205.274-.508.484-.909.629.447.105.804.31 1.073.616.274.305.41.67.41 1.093 0 .679-.25 1.199-.752 1.559-.496.36-1.201.54-2.112.54h-3.343Zm1.265-3.247v2.228h2.092c.528 0 .923-.098 1.182-.293.265-.196.397-.472.397-.828 0-.738-.543-1.107-1.627-1.107h-2.044Zm0-1.012h1.634c1.185 0 1.777-.346 1.777-1.039s-.561-1.05-1.682-1.073h-1.729v2.112Zm8.418-.588h1.921c.838.009 1.501.228 1.989.657.488.428.732 1.009.732 1.743 0 .738-.251 1.33-.752 1.777-.502.447-1.176.67-2.024.67h-3.131v-7.396h1.265v2.549Zm7.28 4.847h-1.271v-7.396h1.271V217Zm-7.28-3.814v2.782h1.88c.474 0 .841-.121 1.1-.363.26-.246.39-.581.39-1.004 0-.411-.128-.746-.383-1.005-.25-.265-.604-.401-1.059-.41h-1.928Zm12.39-.882 1.64-2.7h1.477l-2.42 3.657 2.495 3.739h-1.463l-1.709-2.769-1.709 2.769h-1.47l2.496-3.739-2.42-3.657h1.463l1.62 2.7ZM5.024 235.627a.974.974 0 0 0-.396-.82c-.264-.205-.627-.308-1.087-.308-.447 0-.82.116-1.121.349-.296.232-.444.506-.444.82H.718c0-.643.269-1.169.806-1.579.538-.41 1.21-.615 2.017-.615.866 0 1.54.186 2.023.56.484.369.725.898.725 1.586 0 .333-.1.638-.3.916-.201.278-.486.499-.855.663.861.292 1.292.866 1.292 1.723 0 .679-.262 1.217-.786 1.613-.524.397-1.224.595-2.099.595-.852 0-1.556-.207-2.112-.622-.552-.419-.827-.985-.827-1.696h1.257c0 .361.16.67.479.93.323.255.724.383 1.203.383.483 0 .873-.112 1.169-.335a1.04 1.04 0 0 0 .444-.868c0-.415-.125-.711-.376-.889-.246-.182-.63-.273-1.155-.273H2.358v-1.067h1.374c.862-.022 1.292-.378 1.292-1.066ZM13.053 241c-.073-.146-.132-.406-.178-.779-.588.61-1.29.916-2.105.916-.73 0-1.329-.205-1.798-.616a2.014 2.014 0 0 1-.698-1.572c0-.77.292-1.367.875-1.791.588-.428 1.413-.642 2.475-.642h1.23v-.581c0-.442-.132-.793-.396-1.053-.264-.264-.654-.397-1.169-.397-.451 0-.83.114-1.135.342-.305.228-.458.504-.458.827H8.425c0-.369.13-.724.39-1.066.264-.346.62-.62 1.066-.82a3.604 3.604 0 0 1 1.483-.301c.852 0 1.52.214 2.003.642.483.424.734 1.01.752 1.757v3.405c0 .679.087 1.219.26 1.62V241h-1.326Zm-2.099-.964c.397 0 .773-.102 1.128-.307.356-.206.613-.472.773-.8v-1.518h-.992c-1.55 0-2.324.454-2.324 1.36 0 .397.132.707.397.93.264.223.604.335 1.018.335Zm5.506-.068.438-.54c.492-.638.772-1.595.84-2.871l.117-2.953h4.764v6.364h.95v3.206h-1.264V241h-5.161v2.174h-1.265l.007-3.206h.574Zm1.497 0h3.398v-5.196h-2.277l-.075 1.764c-.077 1.472-.426 2.616-1.046 3.432Zm12 1.032c-.073-.146-.132-.406-.178-.779-.587.61-1.29.916-2.105.916-.73 0-1.328-.205-1.798-.616a2.014 2.014 0 0 1-.697-1.572c0-.77.292-1.367.875-1.791.588-.428 1.413-.642 2.475-.642h1.23v-.581c0-.442-.132-.793-.396-1.053-.265-.264-.654-.397-1.17-.397-.45 0-.829.114-1.134.342-.306.228-.458.504-.458.827h-1.272c0-.369.13-.724.39-1.066.264-.346.62-.62 1.066-.82a3.604 3.604 0 0 1 1.484-.301c.852 0 1.52.214 2.003.642.483.424.733 1.01.752 1.757v3.405c0 .679.086 1.219.26 1.62V241h-1.327Zm-2.098-.964c.396 0 .772-.102 1.128-.307.355-.206.613-.472.772-.8v-1.518h-.991c-1.55 0-2.324.454-2.324 1.36 0 .397.132.707.396.93.264.223.604.335 1.019.335Zm11.61.964h-1.265v-3.158h-3.397V241h-1.272v-7.396h1.272v3.206h3.397v-3.206h1.265V241Zm7.242-7.396h1.265V241h-1.265v-5.394L43.301 241h-1.266v-7.396H43.3v5.4l3.411-5.4Zm8.5 0h1.265V241h-1.265v-5.394L51.801 241h-1.265v-7.396H51.8v5.4l3.411-5.4Zm.342-2.694c0 .552-.189.996-.567 1.333-.374.333-.866.499-1.477.499-.61 0-1.105-.168-1.483-.506-.378-.337-.568-.779-.568-1.326h1.033c0 .319.086.57.26.752.173.178.426.267.758.267.32 0 .568-.089.745-.267.183-.178.274-.428.274-.752h1.025Zm3.4 9.427a.8.8 0 0 1 .192-.547c.132-.146.328-.219.588-.219.26 0 .456.073.588.219a.769.769 0 0 1 .205.547c0 .21-.068.385-.205.526-.132.142-.328.212-.588.212-.26 0-.456-.07-.588-.212a.754.754 0 0 1-.191-.526Z" fill="#757575"/><rect width="270" height="120" rx="4" fill="#F5F4FA"/><path d="M169.943 34.896a1.166 1.166 0 0 0-.941-.793l-4.179-.608-1.87-3.787c-.392-.798-1.7-.798-2.092 0l-1.87 3.787-4.18.608a1.165 1.165 0 0 0-.647 1.99l3.025 2.948-.714 4.162c-.074.438.105.88.463 1.141.363.264.837.297 1.23.09l3.738-1.967 3.738 1.966a1.17 1.17 0 0 0 1.23-.089c.359-.26.539-.703.463-1.14l-.714-4.163 3.025-2.949a1.17 1.17 0 0 0 .295-1.196Zm-5.387 2.903a1.165 1.165 0 0 0-.335 1.033l.417 2.437-2.188-1.15a1.164 1.164 0 0 0-1.088 0l-2.188 1.15.417-2.437a1.164 1.164 0 0 0-.335-1.033l-1.772-1.727 2.448-.355c.38-.055.708-.294.879-.639l1.094-2.216 1.094 2.216c.171.344.498.584.879.639l2.447.355-1.769 1.727ZM157.167 69.892h-2.333v2.334h2.333v-2.334ZM157.167 74.56h-2.333v2.332h2.333V74.56ZM159.5 72.226h-2.333v2.333h2.333v-2.333ZM154.834 72.226H152.5v2.333h2.334v-2.333ZM149 82.726h-2.333v2.333H149v-2.333ZM149 87.393h-2.333v2.333H149v-2.333ZM151.334 85.06H149v2.333h2.334v-2.334ZM146.667 85.06h-2.334v2.333h2.334v-2.334ZM135 78.06h-2.333v2.333H135v-2.334ZM135 82.726h-2.333v2.333H135v-2.333ZM137.333 80.392H135v2.334h2.333v-2.334ZM132.667 80.392h-2.334v2.334h2.334v-2.334ZM112.833 38.392H110.5v2.333h2.333v-2.333ZM112.833 43.059H110.5v2.333h2.333V43.06ZM115.166 40.725h-2.333v2.334h2.333v-2.334ZM110.5 40.725h-2.334v2.334h2.334v-2.334Z" fill="#2196F3"/><path d="M154.064 55.974a3.881 3.881 0 0 0-2.6-1.541 3.887 3.887 0 0 0-2.931.77l-2.738 2.098-.001.002-4.151 3.1-2.971-1.184c5.297-2.376 8.999-7.674 8.999-13.825 0-8.363-6.831-15.167-15.227-15.167-8.397 0-15.228 6.804-15.228 15.167 0 3.031.907 5.85 2.45 8.222l-6.046-.053h-.01c-.019 0-.034.01-.051.01a1.141 1.141 0 0 0-.34.069c-.028.01-.057.016-.084.029-.014.005-.028.007-.042.014l-7.072 3.491c-.001 0-.003 0-.003.002l-4.141 1.991a.863.863 0 0 0-.138.077 3.895 3.895 0 0 0-1.309 5.022 3.884 3.884 0 0 0 2.31 1.944 3.892 3.892 0 0 0 3.016-.281l3.036-1.614 4.952-2.558 2.968-.017-11.904 11.846-.003.003-2.929 2.916a3.61 3.61 0 0 0-1.072 2.576 3.62 3.62 0 0 0 1.072 2.579 3.65 3.65 0 0 0 2.58 1.061c.936 0 1.869-.354 2.582-1.061l2.875-2.863 3.808-2.843 1.97 1.962-3.853 3.837-.004.002-2.928 2.917a3.607 3.607 0 0 0-1.073 2.576 3.648 3.648 0 0 0 3.653 3.64c.935 0 1.871-.354 2.582-1.061l2.93-2.917 4.686-4.667.003-.003 2.208-2.188-.008-.008c.014-.014.034-.019.048-.034l11.3-12.377 7.593 1.08c.055.008.11.012.165.012.141 0 .277-.034.409-.084.039-.014.072-.033.109-.051.042-.021.086-.033.126-.06l7.029-4.666c.026-.018.04-.046.064-.065.028-.022.063-.031.089-.056l2.781-2.605a3.892 3.892 0 0 0 .464-5.166Zm-49.404 7.898a1.558 1.558 0 0 1-1.221.113 1.562 1.562 0 0 1-.465-2.756l2.874-1.382.692 2.022.29.85-2.17 1.153Zm7.65-3.998-3.387 1.75-.558-1.633-.402-1.174 4.434-2.189-.087 3.246Zm33.03-14.482c0 2.009-.479 3.904-1.31 5.599l-9.147-4.155a4.067 4.067 0 0 0-1.724-3.035l3.202-10.633c5.202 1.655 8.979 6.507 8.979 12.224Zm-25.788 0c0-7.076 5.784-12.834 12.894-12.834.553 0 1.094.047 1.63.115l-3.133 10.398c-.042 0-.081-.012-.124-.012-2.259 0-4.097 1.831-4.097 4.083 0 2.252 1.838 4.083 4.097 4.083 1.519 0 2.831-.838 3.539-2.066l8.449 3.839c-2.351 3.163-6.113 5.227-10.361 5.227-7.11 0-12.894-5.757-12.894-12.833Zm13.029 1.75c0 .965-.791 1.75-1.762 1.75a1.759 1.759 0 0 1-1.763-1.75c0-.965.791-1.75 1.763-1.75.971 0 1.762.785 1.762 1.75Zm-27.189 32.865a1.33 1.33 0 0 1-1.869.002 1.297 1.297 0 0 1 0-1.847l2.104-2.097 1.862 1.854-2.097 2.088Zm7.03 8.167a1.33 1.33 0 0 1-1.87.001 1.297 1.297 0 0 1 0-1.846l2.106-2.098.881.876.982.978-2.099 2.09Zm7.616-7.588-.003.002-3.861 3.85-.881-.876-.982-.977 3.857-3.84v-.001l.004-.002c.087-.088.142-.193.196-.297.015-.03.044-.056.057-.087.036-.09.042-.187.056-.281.007-.054.03-.104.03-.16 0-.077-.028-.153-.044-.23-.014-.07-.014-.141-.041-.209a1.164 1.164 0 0 0-.199-.301c-.023-.026-.031-.058-.055-.083h-.002l-.002-.004-3.515-3.5c-.037-.038-.085-.053-.127-.085a1.124 1.124 0 0 0-.19-.126 1.115 1.115 0 0 0-.205-.07 1.126 1.126 0 0 0-.225-.044 1.133 1.133 0 0 0-.208.01c-.079.01-.152.02-.228.045-.074.023-.139.06-.206.098-.044.024-.093.033-.133.063l-3.88 2.896-1.97-1.963 5.248-5.22 9.538 9.382-2.029 2.01Zm14.916-15.349c-.033-.004-.065.008-.099.006a1.195 1.195 0 0 0-.444.062 1.07 1.07 0 0 0-.211.103c-.066.04-.125.081-.182.134-.028.024-.062.036-.088.064l-10.277 11.256-9.468-9.311 6.197-6.165a1.167 1.167 0 0 0-.83-1.993l-4.854.028.061-3.516 6.79.058a15.201 15.201 0 0 0 10.897 4.596c.957 0 1.89-.1 2.799-.268.087.07.174.14.283.185l5.272 2.1.333 1.659.39 1.937-6.569-.935Zm8.84.39-.684-3.408 3.164-2.363.828 1.1 1.243 1.649-4.551 3.022Zm8.211-6.193-1.832 1.717-2.037-2.704 1.818-1.394c.34-.261.768-.368 1.188-.313.422.06.796.28 1.05.622a1.562 1.562 0 0 1-.187 2.072Z" fill="#212121"/><path d="m129.755 65.565-4.688-4.667a1.165 1.165 0 0 0-1.646 0l-4.687 4.667c-.219.22-.343.517-.343.827 0 .31.122.608.343.827l4.687 4.667a1.164 1.164 0 0 0 1.646 0l4.688-4.667a1.168 1.168 0 0 0 0-1.654Zm-5.511 3.848-3.033-3.02 3.033-3.021 3.035 3.02-3.035 3.02ZM137.547 36.092l-.564 2.266c.155.039 3.801.988 3.801 4.7h2.334c0-4.412-3.644-6.486-5.571-6.966ZM143.118 45.392h-2.334v2.333h2.334v-2.333Z" fill="#212121"/></svg>